<svg xmlns="http://www.w3.org/2000/svg" xmlns:xlink="http://www.w3.org/1999/xlink" fill="none" version="1.1" width="22.30109405517578" height="23.375343322753906" viewBox="0 0 22.30109405517578 23.375343322753906"><g style="mix-blend-mode:passthrough"><g><g style="mix-blend-mode:passthrough"><path d="M22.1683,8.6973C21.9912,8.52025,21.7051,8.52025,21.528,8.6973L9.16845,21.0569C8.25736,21.9679,7.04151,22.4692,5.7437,22.4692C4.44543,22.4692,3.22913,21.9679,2.31849,21.0569C1.40785,20.1458,0.906113,18.9299,0.906113,17.6316C0.906113,16.3338,1.4074,15.1175,2.31849,14.2069L14.6776,1.84689C15.9894,0.535494,18.0489,0.615645,19.4681,2.03391C20.8868,3.45263,20.9674,5.51255,19.6555,6.8244L8.04498,18.4354C7.39608,19.0843,6.33917,19.0848,5.68891,18.4354C5.03955,17.7856,5.03955,16.7287,5.68891,16.0793L13.5541,8.21414C13.7312,8.03708,13.7312,7.75089,13.5541,7.57383C13.3771,7.39678,13.0909,7.39678,12.9138,7.57383L5.0486,15.4386C4.04604,16.4412,4.04604,18.0722,5.0486,19.0753C6.05208,20.0787,7.68362,20.0769,8.68528,19.0753L20.2963,7.46425C21.9731,5.78697,21.8925,3.17685,20.1088,1.39315C18.3256,-0.390091,15.715,-0.471148,14.0377,1.20614L1.67774,13.5661C0.595472,14.6479,0,16.0916,0,17.6316C0,19.1717,0.595472,20.6158,1.67774,21.6976C2.75955,22.7799,4.20317,23.3753,5.7437,23.3753C7.28332,23.3753,8.7274,22.7799,9.80921,21.6976L22.1683,9.33761C22.3454,9.16055,22.3454,8.87391,22.1683,8.6973Z" fill-rule="evenodd" fill="#2F2F4A" fill-opacity="1"/></g></g></g></svg>