<svg xmlns="http://www.w3.org/2000/svg" xmlns:xlink="http://www.w3.org/1999/xlink" fill="none" version="1.1" width="363" height="415" viewBox="0 0 363 415"><clipPath id="master_svg0_72_0938"><rect x="0" y="0" width="363" height="415" rx="0"/></clipPath><g clip-path="url(#master_svg0_72_0938)" style="mix-blend-mode:passthrough"><g><g style="mix-blend-mode:passthrough"><path d="M174.20096365234375,389.32061811523437C174.20096365234375,389.32061811523437,173.73834365234376,378.9089101152344,173.73834365234376,378.9089101152344C173.69025365234376,378.88336711523436,173.64213365234374,378.8579391152344,173.59392365234376,378.83262111523436C168.63673365234376,376.22902811523437,162.95535365234375,380.94208811523436,164.53871265234375,386.31672811523435C166.02847365234376,391.37361811523436,167.02938365234374,396.8253181152344,169.75632365234375,401.25161811523435C171.36751365234375,403.8225181152344,173.53607365234376,405.9976181152344,176.10129365234374,407.6156181152344C178.66639365234374,409.23371811523435,181.56249365234376,410.2532181152344,184.57479365234374,410.5986181152344C184.57479365234374,410.5986181152344,190.87289365234375,414.45831811523436,190.87289365234375,414.45831811523436C191.73709365234376,409.6360181152344,191.54649365234374,404.6835181152344,190.31439365234374,399.9421181152344C189.08219365234376,395.20061811523436,186.83779365234375,390.7829181152344,183.73569365234374,386.9932781152344C181.97429365234376,384.88455811523437,179.95469365234374,383.00624811523437,177.72449365234374,381.40266811523435C176.21609365234374,385.38372811523436,174.20096365234375,389.32061811523437,174.20096365234375,389.32061811523437C174.20096365234375,389.32061811523437,174.20096365234375,389.32061811523437,174.20096365234375,389.32061811523437Z" fill="#F2F2F2" fill-opacity="1"/></g><g style="mix-blend-mode:passthrough"><path d="M117.814,283.659C105.689,271.142,88.1172,263.964,69.6054,263.964C69.6054,263.964,68.8914,263.966,68.8914,263.966C56.6981,263.971,44.7224,260.733,34.1892,254.586C34.1892,254.586,33.0931,253.946,33.0931,253.946C33.0931,253.946,33.9759,253.036,33.9759,253.036C38.7553,248.086,42.7461,242.431,45.8084,236.268C43.6335,238.297,41.0394,239.824,38.2098,240.739C35.3802,241.654,32.3842,241.935,29.434,241.562C26.3193,241.191,23.3291,240.118,20.6877,238.425C18.0463,236.731,15.8223,234.461,14.1825,231.784C7.71242,221.277,0,206.367,0,195.009C0.0100717,185.409,2.01837,175.915,5.89689,167.135C9.77541,158.354,15.4391,150.479,22.5268,144.01C27.014,139.961,30.5981,135.01,33.0455,129.48C35.4929,123.951,36.7485,117.968,36.7306,111.92C36.7306,111.92,36.727,111.06,36.727,111.06C36.7258,103.098,37.6979,95.1654,39.6216,87.4397C39.6216,87.4397,39.8169,86.6596,39.8169,86.6596C39.8169,86.6596,40.6188,86.6876,40.6188,86.6876C45.7901,86.8638,50.9641,86.4299,56.0341,85.395C51.2785,84.8111,46.6262,83.5726,42.2092,81.7145C42.2092,81.7145,41.3465,81.3652,41.3465,81.3652C41.3465,81.3652,41.6393,80.4803,41.6393,80.4803C61.8214,67.9727,107.378,74.4498,133.821,13.8945C155.262,-35.2077,230.914,57.4825,230.914,111.06C230.914,116.527,225.509,123.751,229.555,127.364C273.297,166.425,243.116,191.507,233.6,216.746C231.342,222.734,236.238,229.308,236.238,235.787C236.238,236.886,236.21,238.021,236.154,239.159C236.154,239.159,236.07,240.91,236.07,240.91C236.07,240.91,234.612,239.938,234.612,239.938C231.726,238.047,229.052,235.851,226.634,233.389C229.142,239.167,230.325,245.434,230.093,251.73C229.862,258.026,228.224,264.19,225.299,269.768C220.715,278.428,216.28,284.628,212.117,288.194C198.784,299.615,181.595,305.506,164.066,304.663C146.537,303.82,129.992,296.307,117.814,283.659C117.814,283.659,117.814,283.659,117.814,283.659C117.814,283.659,117.814,283.659,117.814,283.659Z" fill="#E6E6E6" fill-opacity="1"/></g><g style="mix-blend-mode:passthrough"><path d="M191.04709165039063,413.94494140625C191.34519165039063,413.94394140625,191.6330916503906,413.83594140624996,191.85809165039063,413.64094140625C192.08309165039063,413.44494140625,192.23009165039062,413.17494140625,192.27209165039062,412.87894140624996C192.32479165039064,412.50894140624996,197.4804916503906,375.28994140625,192.85009165039062,325.82494140625C188.57379165039063,280.14294140625,174.84109165039064,214.34404140625,133.70310165039064,160.30471340625C133.60457165039062,160.17494340625,133.48147165039063,160.06587840625,133.34080165039063,159.98377340625C133.20012165039063,159.90166880625,133.04467165039063,159.84812470625,132.88331165039062,159.82620510625C132.72195165039062,159.80428550625,132.55783165039063,159.81442596925,132.40038965039062,159.85603390625C132.24294365039063,159.89764180625,132.09525065039062,159.96989540625,131.96572865039062,160.06868640625C131.83620765039063,160.16747740625,131.72738765039063,160.29085740625,131.64554065039061,160.43176640625C131.56369375039063,160.57267540625,131.51042475039063,160.72835940625,131.48873335039062,160.88990140625C131.46704195039064,161.05144140625,131.47737672339062,161.21568140625,131.51914835039062,161.37322140625C131.56092005039062,161.53076140625,131.63329665039063,161.67851140625,131.73216165039062,161.80803140625C172.51479165039063,215.38074140625,186.13689165039062,280.69694140625,190.38299165039064,326.05594140625C194.98649165039063,375.23394140625,189.87119165039064,412.16194140625,189.81889165039064,412.52994140625003C189.7940916503906,412.70594140624996,189.80729165039062,412.88494140625,189.85759165039062,413.05494140625C189.90789165039064,413.22594140625,189.99419165039063,413.38294140625,190.11069165039063,413.51694140625C190.22709165039063,413.65194140625,190.37099165039064,413.75894140624996,190.53249165039063,413.83294140625003C190.69409165039062,413.90694140625,190.86959165039062,413.94494140625,191.04709165039063,413.94494140625C191.04709165039063,413.94494140625,191.04709165039063,413.94494140625,191.04709165039063,413.94494140625C191.04709165039063,413.94494140625,191.04709165039063,413.94494140625,191.04709165039063,413.94494140625Z" fill="#3F3D56" fill-opacity="1"/></g><g style="mix-blend-mode:passthrough"><path d="M157.47605053710936,236.52997421875C157.73805053710936,236.53017421875,157.99305053710935,236.44737421874999,158.20505053710937,236.29357421875C158.41605053710936,236.13977421875,158.57405053710937,235.92277421875,158.6550505371094,235.67367421875C158.73605053710938,235.42457421875,158.73605053710938,235.15617421875,158.6550505371094,234.90697421875C158.57505053710938,234.65787421875,158.4170505371094,234.44067421875,158.20505053710937,234.28667421875C158.05605053710937,234.17807421875,143.00705053710936,223.32427421875,120.50795053710938,215.07867421875C99.70965053710937,207.45714421875,68.08255053710937,200.54770421875,35.52310353710938,210.91993421875C35.367837537109374,210.96911421875,35.22379053710937,211.04845421875,35.099189537109375,211.15341421875C34.97458753710937,211.25837421875,34.871881537109374,211.38689421875,34.796953537109374,211.53162421875C34.722024437109376,211.67635421875,34.67634923710938,211.83444421875,34.662523727109374,211.99686421875C34.64869824710937,212.15928421875,34.666995307109374,212.32282421875,34.71638223710937,212.47815421875C34.76576953710938,212.63348421875,34.845263537109375,212.77756421875,34.95032853710938,212.90210421875C35.055393537109374,213.02665421875,35.183959537109374,213.12923421875,35.32867453710937,213.20399421875C35.47338953710938,213.27875421875,35.63142553710937,213.32423421875,35.793710537109376,213.33780421875C35.956000537109375,213.35138421875,36.11936053710937,213.33278421875,36.27447053710937,213.28310421875C68.16685053710938,203.12401421875,99.22055053710938,209.91919421875,119.65595053710938,217.40797421875C141.8330505371094,225.53567421875,156.6020505371094,236.18647421875,156.74905053710938,236.29297421875C156.9600505371094,236.44707421875,157.2150505371094,236.53007421875,157.47605053710936,236.52997421875C157.47605053710936,236.52997421875,157.47605053710936,236.52997421875,157.47605053710936,236.52997421875Z" fill="#3F3D56" fill-opacity="1"/></g><g style="mix-blend-mode:passthrough"><path d="M214.1805830810547,95.16821196044921C214.1995830810547,94.90695196044922,214.1354830810547,94.64637596044922,213.9974830810547,94.42382696044922C213.8594830810547,94.20127796044922,213.65458308105468,94.02818596044922,213.41218308105468,93.92939186044921C213.16978308105467,93.83059801044922,212.9023830810547,93.81117636044922,212.64828308105467,93.87389226044922C212.39418308105468,93.93660806044922,212.16638308105468,94.07823896044921,211.99768308105467,94.27849696044922C211.87878308105468,94.41975096044922,199.9794830810547,108.66252196044923,190.14268308105468,130.53002196044923C181.05024308105467,150.7448219604492,171.88757308105468,181.82162196044922,179.87843308105468,215.0738219604492C179.95526308105468,215.3938219604492,180.15584308105468,215.6698219604492,180.4360530810547,215.84182196044924C180.71626308105468,216.01282196044923,181.0531530810547,216.0668219604492,181.37259308105467,215.9898219604492C181.6920430810547,215.9128219604492,181.96788308105468,215.7118219604492,182.13943308105468,215.4318219604492C182.31099308105468,215.1508219604492,182.36419308105468,214.81382196044922,182.28736308105468,214.49382196044922C174.4608530810547,181.9230219604492,183.4683930810547,151.4103219604492,192.4023830810547,131.5482219604492C202.0984830810547,109.99292196044922,213.77528308105468,96.01600196044922,213.8919830810547,95.87728196044922C214.0607830810547,95.67748196044921,214.1617830810547,95.42919196044922,214.1805830810547,95.16821196044921C214.1805830810547,95.16821196044921,214.1805830810547,95.16821196044921,214.1805830810547,95.16821196044921C214.1805830810547,95.16821196044921,214.1805830810547,95.16821196044921,214.1805830810547,95.16821196044921Z" fill="#3F3D56" fill-opacity="1"/></g><g style="mix-blend-mode:passthrough"><path d="M212.50382396972657,159.11236484375002C213.54912396972657,167.55406484375,219.39305396972657,174.51436484375,227.89134396972656,174.51436484375C231.97244396972656,174.51436484375,235.88624396972656,172.89166484375,238.77204396972655,170.00326484375C241.65774396972657,167.11476484375,243.27894396972655,163.19726484375,243.27894396972655,159.11236484375002C243.27894396972655,150.60616484375,236.35324396972658,144.49693384375,227.89134396972656,143.71049424375C218.91279396972655,142.87602984375,211.16176396972656,148.27439484375,212.50382396972657,159.11236484375002C212.50382396972657,159.11236484375002,212.50382396972657,159.11236484375002,212.50382396972657,159.11236484375002Z" fill="#2F2E41" fill-opacity="1"/></g><g style="mix-blend-mode:passthrough"><path d="M235.01826662496094,407.16090092773436C235.01826662496094,407.16090092773436,240.87797458496092,407.1603009277344,240.87797458496092,407.1603009277344C240.87797458496092,407.1603009277344,243.66548458496095,384.5372009277344,243.66548458496095,384.5372009277344C243.66548458496095,384.5372009277344,235.01707458496094,384.5377794277344,235.01707458496094,384.5377794277344C235.01707458496094,384.5377794277344,235.01826662496094,407.16090092773436,235.01826662496094,407.16090092773436C235.01826662496094,407.16090092773436,235.01826662496094,407.16090092773436,235.01826662496094,407.16090092773436Z" fill="#FFB6B6" fill-opacity="1"/></g><g style="mix-blend-mode:passthrough"><path d="M234.81228543896094,413.27951C234.81228543896094,413.27951,252.83169645996094,413.27882,252.83169645996094,413.27882C252.83169645996094,413.27882,252.83169645996094,413.05075,252.83169645996094,413.05075C252.83149645996093,411.18892,252.09259645996093,409.4034,250.77729645996095,408.0869C249.46199645996094,406.7704,247.67809645996093,406.03073,245.81809645996094,406.03062C245.81809645996094,406.03062,245.81759645996092,406.03062,245.81759645996092,406.03062C245.81759645996092,406.03062,242.52614645996093,403.53125,242.52614645996093,403.53125C242.52614645996093,403.53125,236.38497645996094,406.03106,236.38497645996094,406.03106C236.38497645996094,406.03106,234.81199645996094,406.03109,234.81199645996094,406.03109C234.81199645996094,406.03109,234.81228543896094,413.27951,234.81228543896094,413.27951C234.81228543896094,413.27951,234.81228543896094,413.27951,234.81228543896094,413.27951Z" fill="#2F2E41" fill-opacity="1"/></g><g style="mix-blend-mode:passthrough"><path d="M211.9369372692578,407.16090092773436C211.9369372692578,407.16090092773436,217.79660523925781,407.1603009277344,217.79660523925781,407.1603009277344C217.79660523925781,407.1603009277344,220.5841052392578,384.5372009277344,220.5841052392578,384.5372009277344C220.5841052392578,384.5372009277344,211.9357452392578,384.5377794277344,211.9357452392578,384.5377794277344C211.9357452392578,384.5377794277344,211.9369372692578,407.16090092773436,211.9369372692578,407.16090092773436C211.9369372692578,407.16090092773436,211.9369372692578,407.16090092773436,211.9369372692578,407.16090092773436Z" fill="#FFB6B6" fill-opacity="1"/></g><g style="mix-blend-mode:passthrough"><path d="M211.73095609325782,413.27951C211.73095609325782,413.27951,229.7503671142578,413.27882,229.7503671142578,413.27882C229.7503671142578,413.27882,229.7503671142578,413.05075,229.7503671142578,413.05075C229.7502671142578,411.18892,229.0112671142578,409.4034,227.69596711425783,408.0869C226.38066711425782,406.7704,224.5968671142578,406.03073,222.73676711425782,406.03062C222.73676711425782,406.03062,222.7362671142578,406.03062,222.7362671142578,406.03062C222.7362671142578,406.03062,219.4448271142578,403.53125,219.4448271142578,403.53125C219.4448271142578,403.53125,213.30365711425782,406.03106,213.30365711425782,406.03106C213.30365711425782,406.03106,211.7306671142578,406.03109,211.7306671142578,406.03109C211.7306671142578,406.03109,211.73095609325782,413.27951,211.73095609325782,413.27951C211.73095609325782,413.27951,211.73095609325782,413.27951,211.73095609325782,413.27951Z" fill="#2F2E41" fill-opacity="1"/></g><g style="mix-blend-mode:passthrough"><path d="M255.1831267089844,265.46827125C255.1831267089844,265.46827125,259.32592670898435,279.68543125,259.32592670898435,279.68543125C259.32592670898435,279.68543125,254.44542670898437,339.89803125000003,254.44542670898437,339.89803125000003C254.44542670898437,339.89803125000003,256.95862670898435,343.66273125,255.1831267089844,343.66273125C253.40762670898437,343.66273125,251.13092670898436,344.49763125,252.56522670898437,346.74583125C253.99952670898438,348.99413125,249.09702670898437,357.06573125,249.09702670898437,357.06573125C249.09702670898437,357.06573125,242.16282670898437,399.93903124999997,242.16282670898437,399.93903124999997C242.16282670898437,399.93903124999997,233.32732670898437,399.80803125,233.32732670898437,399.80803125C233.32732670898437,399.80803125,228.83532670898438,397.30403125,231.35632670898437,394.77103124999996C233.87722670898438,392.23803125,235.65272670898437,392.23803125,233.28542670898437,389.86803125C230.91812670898437,387.49903125000003,230.91812670898437,388.21303125,230.91812670898437,386.37503125C230.91812670898437,384.53703125,228.54632670898437,362.07803125,234.17092670898438,353.46263125C234.17092670898438,353.46263125,232.47612670898437,318.33723125,232.47612670898437,318.33723125C232.47612670898437,318.33723125,228.4845267089844,352.79103125,228.4845267089844,352.79103125C228.4845267089844,352.79103125,220.26512670898438,398.75403125,220.26512670898438,398.75403125C220.26512670898438,398.75403125,211.75366670898438,398.68403125,211.75366670898438,398.68403125C211.75366670898438,398.68403125,207.8222557089844,394.89103124999997,207.82951070898437,392.08403125C207.83676670898438,389.27603124999996,210.25848670898438,389.04303125,208.45580670898437,387.38203125C206.65311270898437,385.72203125,206.65311270898437,360.21203125,211.97957670898438,346.03223125C211.97957670898438,346.03223125,214.99263670898438,338.10973125,211.97274670898437,335.39503125C208.95286670898437,332.68023125,211.96899670898438,329.57393125,211.96899670898438,329.57393125C211.96899670898438,329.57393125,216.75201670898437,327.84333125,211.96469670898438,322.85703125C207.17737570898439,317.87073125,211.93883670898438,282.60523125,211.93883670898438,282.60523125C211.93883670898438,282.60523125,206.70545470898438,268.36984125,212.00576670898437,262.77236125C217.30607670898436,257.17489125,255.1831267089844,265.46827125,255.1831267089844,265.46827125C255.1831267089844,265.46827125,255.1831267089844,265.46827125,255.1831267089844,265.46827125Z" fill="#2F2E41" fill-opacity="1"/></g><g style="mix-blend-mode:passthrough"><path d="M181.39709161621093,289.96302661132813C181.39709161621093,289.96302661132813,188.78863161621095,272.0835266113281,188.78863161621095,272.0835266113281C188.78863161621095,272.0835266113281,194.61213161621095,275.3218966113281,194.61213161621095,275.3218966113281C194.61213161621095,275.3218966113281,191.09523161621092,293.50982661132815,191.09523161621092,293.50982661132815C191.44743161621093,294.6621266113281,191.47163161621094,295.8899266113281,191.16493161621094,297.05512661132815C190.85823161621093,298.22042661132815,190.23283161621094,299.2769266113281,189.35923161621093,300.10592661132813C188.48553161621095,300.93492661132814,187.39811161621094,301.5036266113281,186.21924161621095,301.7479266113281C185.04038161621094,301.9923266113281,183.81677161621093,301.90272661132815,182.68601161621095,301.4891266113281C181.55525161621094,301.0756266113281,180.56218161621095,300.35452661132814,179.81840161621093,299.40702661132815C179.07461561621093,298.4595266113281,178.60961161621094,297.3231266113281,178.47569691621095,296.12562661132813C178.34178211621094,294.9280266113281,178.54424961621095,293.71682661132814,179.06033761621094,292.6282266113281C179.57642161621095,291.53952661132814,180.38566161621094,290.61652661132814,181.39709161621093,289.96302661132813C181.39709161621093,289.96302661132813,181.39709161621093,289.96302661132813,181.39709161621093,289.96302661132813C181.39709161621093,289.96302661132813,181.39709161621093,289.96302661132813,181.39709161621093,289.96302661132813Z" fill="#FFB6B6" fill-opacity="1"/></g><g style="mix-blend-mode:passthrough"><path d="M305.429108203125,148.5788828125C305.429108203125,148.5788828125,294.182468203125,164.3169828125,294.182468203125,164.3169828125C294.182468203125,164.3169828125,289.243408203125,159.8421828125,289.243408203125,159.8421828125C289.243408203125,159.8421828125,296.786108203125,142.9248328125,296.786108203125,142.9248328125C296.703868203125,141.7226428125,296.958278203125,140.5213328125,297.520758203125,139.4559428125C298.083248203125,138.3905528125,298.931488203125,137.5033228125,299.970108203125,136.8940058125C301.008708203125,136.2846918125,302.196608203125,135.9774448125,303.400108203125,136.0068065625C304.603608203125,136.0361682125,305.775108203125,136.4009778125,306.782808203125,137.0602128125C307.790608203125,137.7194528125,308.594708203125,138.6469828125,309.104608203125,139.7385328125C309.614608203125,140.8300828125,309.810208203125,142.0423828125,309.669608203125,143.2391328125C309.528908203125,144.4358828125,309.057508203125,145.5696428125,308.308408203125,146.5129828125C307.559308203125,147.4562828125,306.562208203125,148.1716828125,305.429108203125,148.5788828125C305.429108203125,148.5788828125,305.429108203125,148.5788828125,305.429108203125,148.5788828125C305.429108203125,148.5788828125,305.429108203125,148.5788828125,305.429108203125,148.5788828125Z" fill="#FFB6B6" fill-opacity="1"/></g><g style="mix-blend-mode:passthrough"><path d="M256.2991810791016,266.92587890625C263.59388107910155,278.25087890625,226.92588107910157,292.62387890625,212.85628107910156,286.85387890625C210.39258107910157,285.84287890625,201.91798107910157,282.50587890625,207.71068107910156,277.87887890625C213.50338107910156,273.25187890625,207.03908107910155,272.60087890625,206.88628107910156,269.58887890625C206.78408107910155,267.57587890625,208.34168107910156,263.15887890625,206.71658107910156,263.34787890625C205.09148107910156,263.53687890624997,203.18938107910157,260.75287890625,206.72868107910156,259.55387890625C210.26798107910156,258.35587890625,206.76668107910157,257.26287890624997,206.79768107910155,256.12587890625C207.13608107910156,243.71197890625,216.65148107910156,223.96697890625,216.65148107910156,223.96697890625C216.65148107910156,223.96697890625,199.50558107910157,267.83687890625004,199.50558107910157,267.83687890625004C199.50558107910157,267.83687890625004,199.63228107910157,275.42687890625,197.44578107910155,273.10687890625C195.25928107910156,270.78787890625,195.41838107910155,278.29487890625,195.41838107910155,278.29487890625C195.41838107910155,278.29487890625,192.16710107910157,280.56587890624996,194.03668107910156,281.82987890625C195.90628107910157,283.09387890625,192.02389107910156,286.97987890625,192.02389107910156,286.97987890625C192.02389107910156,286.97987890625,182.96498107910156,286.33187890625004,182.96498107910156,286.33187890625004C182.96498107910156,286.33187890625004,183.10680707910157,279.59587890625,184.65356107910156,278.10687890625C186.20031107910157,276.61687890625,185.44055107910157,274.27287890625,185.44055107910157,274.27287890625C185.44055107910157,274.27287890625,189.46769107910157,270.70487890625,186.76783107910157,267.80787890625C183.29550507910156,264.08187890625,195.95548107910156,201.14697890625,200.32448107910156,201.77017890625C200.94218107910157,198.76127890625,202.37908107910155,195.98187890625002,204.47638107910157,193.73917890625C206.57368107910156,191.49657890625,209.24968107910155,189.87807890625,212.20848107910157,189.06267890625C212.20848107910157,189.06267890625,221.99278107910158,186.36617890625,221.99278107910158,186.36617890625C221.99278107910158,186.36617890625,223.73018107910156,179.46637890625,223.73018107910156,179.46637890625C223.73018107910156,179.46637890625,237.50708107910157,179.46637890625,237.50708107910157,179.46637890625C237.50708107910157,179.46637890625,239.90678107910156,184.00007890625,239.90678107910156,184.00007890625C239.90678107910156,184.00007890625,250.38088107910156,188.73117890625,250.38088107910156,188.73117890625C252.35378107910157,185.94497890625001,253.82818107910157,183.00887890625,261.90698107910157,182.05707890625C261.90698107910157,182.05707890625,283.6759810791016,162.23197890625,282.61318107910154,160.68397890625C281.5502810791016,159.13597890625,284.92498107910154,155.51180890625,284.92498107910154,155.51180890625C284.92498107910154,155.51180890625,287.80698107910155,154.56767890625,286.18098107910157,154.06361890625C284.55398107910156,153.55956890625,287.6279810791016,152.39412890625,287.6279810791016,152.39412890625C287.6279810791016,152.39412890625,290.47498107910155,151.64535890625,289.1319810791016,150.65944890625C287.78998107910155,149.67353590625,293.6129810791016,149.02587890625,293.6129810791016,149.02587890625C293.6129810791016,149.02587890625,301.16898107910157,155.19659890625,301.16898107910157,155.19659890625C301.16898107910157,155.19659890625,299.6419810791016,157.78851890625,299.6419810791016,157.78851890625C299.6419810791016,157.78851890625,300.57298107910157,161.31787890625,299.3579810791016,160.02937890625C298.14298107910156,158.74092890625,297.9139810791016,162.48017890625,297.9139810791016,162.48017890625C297.9139810791016,162.48017890625,297.29298107910154,166.57467890625,293.6129810791016,167.80837890625C289.9329810791016,169.04197890625,287.14298107910156,180.76167890625,287.14298107910156,180.76167890625C278.4635810791016,192.05687890625,268.22108107910157,200.86807890625,256.08348107910155,206.66857890625C260.81378107910155,212.10327890625,256.2991810791016,266.92587890625,256.2991810791016,266.92587890625C256.2991810791016,266.92587890625,256.2991810791016,266.92587890625,256.2991810791016,266.92587890625Z" fill="#700BEF" fill-opacity="1"/></g><g style="mix-blend-mode:passthrough"><path d="M229.59229614257814,175.4288354736328C237.12829614257814,175.4288354736328,243.23739614257812,169.31403547363283,243.23739614257812,161.77103547363282C243.23739614257812,154.22804547363282,237.12829614257814,148.1132354736328,229.59229614257814,148.1132354736328C222.05638614257813,148.1132354736328,215.94729614257812,154.22804547363282,215.94729614257812,161.77103547363282C215.94729614257812,169.31403547363283,222.05638614257813,175.4288354736328,229.59229614257814,175.4288354736328C229.59229614257814,175.4288354736328,229.59229614257814,175.4288354736328,229.59229614257814,175.4288354736328Z" fill="#FFB6B6" fill-opacity="1"/></g><g style="mix-blend-mode:passthrough"><path d="M215.4629675830078,163.25901259765624C215.89500258300782,166.22681259765625,218.42211258300782,170.36751259765626,217.8302825830078,170.36751259765626C217.2384525830078,170.36751259765626,213.03055258300782,158.13291259765626,217.2384525830078,157.33511259765626C220.2906525830078,156.75651259765624,220.97290258300782,157.26411259765626,223.82552258300782,156.02601259765626C223.82552258300782,156.02601259765626,223.4230825830078,156.40511259765626,223.4230825830078,156.40511259765626C225.3110225830078,157.77941259765626,227.9387225830078,156.93231259765625,230.0930225830078,156.03781259765626C232.2532225830078,155.14921259765626,234.87492258300782,154.30211259765625,236.76882258300782,155.67051259765626C237.9584225830078,156.52951259765626,238.46142258300782,158.02231259765625,239.20122258300782,159.29001259765624C239.94102258300782,160.56361259765626,241.30812258300782,161.76621259765625,242.71672258300782,161.37521259765626C243.8471225830078,161.06121259765627,244.4981225830078,159.79351259765625,244.49222258300782,158.62061259765625C244.48632258300782,157.44771259765625,242.9604225830078,156.33191259765624,243.47422258300782,155.27961259765624C244.9971225830078,152.16103259765626,243.62762258300782,150.03538259765625,240.3079225830078,148.56791259765626C239.1006225830078,148.38427259765626,237.8933225830078,148.19667259765626,236.68592258300782,148.00514259765626C237.31862258300782,147.12802259765624,238.08562258300782,146.35634259765624,238.9586225830078,145.71855259765624C238.58982258300782,144.77201259765624,237.9519225830078,143.95439259765624,237.1239225830078,143.36679559765625C236.15922258300782,142.79218529765626,234.9637225830078,142.83364119765625,233.84522258300782,142.89287939765626C231.34762258300782,143.02320359765625,228.85212258300783,143.15352959765625,226.3585225830078,143.28385359765625C224.5120625830078,143.37863459765626,222.6004525830078,143.49118659765625,220.94927258300783,144.33829259765625C218.88970258300782,145.39865259765625,217.54030258300781,147.46608259765625,216.5578325830078,149.56903259765625C214.35623158300783,154.29621259765625,214.70540758300783,158.09931259765625,215.4629675830078,163.25901259765624C215.4629675830078,163.25901259765624,215.4629675830078,163.25901259765624,215.4629675830078,163.25901259765624Z" fill="#2F2E41" fill-opacity="1"/></g><g style="mix-blend-mode:passthrough"><path d="M158.7004025390625,414.8179781152344C158.7004025390625,414.8179781152344,292.8977275390625,415.00005811523437,292.8977275390625,415.00005811523437C293.0847275390625,415.00005811523437,293.26372753906253,414.92573811523437,293.3957275390625,414.79346811523436C293.52772753906254,414.6611881152344,293.60272753906247,414.48175811523436,293.60272753906247,414.2946941152344C293.60272753906247,414.1076271152344,293.52772753906254,413.9282351152344,293.3957275390625,413.7959591152344C293.26372753906253,413.6636821152344,293.0847275390625,413.5893631152344,292.8977275390625,413.5893631152344C292.8977275390625,413.5893631152344,158.7004025390625,413.4073181152344,158.7004025390625,413.4073181152344C158.5135105390625,413.4073181152344,158.3342475390625,413.48163751523435,158.2020945390625,413.61391311523437C158.0699417390625,413.74618911523436,157.9957275390625,413.92558211523436,157.9957275390625,414.1126491152344C157.9957275390625,414.2997151152344,158.0699417390625,414.4791081152344,158.2020945390625,414.6113881152344C158.3342475390625,414.7436581152344,158.5135105390625,414.8179781152344,158.7004025390625,414.8179781152344C158.7004025390625,414.8179781152344,158.7004025390625,414.8179781152344,158.7004025390625,414.8179781152344C158.7004025390625,414.8179781152344,158.7004025390625,414.8179781152344,158.7004025390625,414.8179781152344Z" fill="#CACACA" fill-opacity="1"/></g><g style="mix-blend-mode:passthrough"><path d="M103.97930592773437,364.07124639648436C105.69911592773437,364.07124639648436,107.09329592773437,362.06892639648436,107.09329592773437,359.59891639648436C107.09329592773437,357.1289163964844,105.69911592773437,355.1265563964844,103.97930592773437,355.1265563964844C102.25950592773438,355.1265563964844,100.86532592773438,357.1289163964844,100.86532592773438,359.59891639648436C100.86532592773438,362.06892639648436,102.25950592773438,364.07124639648436,103.97930592773437,364.07124639648436C103.97930592773437,364.07124639648436,103.97930592773437,364.07124639648436,103.97930592773437,364.07124639648436Z" transform="matrix(0.14384888112545013,-0.9895996451377869,0.9895612597465515,0.14411276578903198,-265.0635208684839,403.7645768938455)" fill="#E6E6E6" fill-opacity="1"/></g><g style="mix-blend-mode:passthrough"><path d="M133.08044118164062,361.2289002050781C134.80025118164062,361.2289002050781,136.19443118164062,359.2265802050781,136.19443118164062,356.7565702050781C136.19443118164062,354.28657020507814,134.80025118164062,352.2842102050781,133.08044118164062,352.2842102050781C131.36064118164063,352.2842102050781,129.96646118164062,354.28657020507814,129.96646118164062,356.7565702050781C129.96646118164062,359.2265802050781,131.36064118164063,361.2289002050781,133.08044118164062,361.2289002050781C133.08044118164062,361.2289002050781,133.08044118164062,361.2289002050781,133.08044118164062,361.2289002050781Z" transform="matrix(0.14384804666042328,-0.9895997643470764,0.989561140537262,0.14411360025405884,-237.33572523451176,430.1300437181417)" fill="#3F3D56" fill-opacity="1"/></g><g style="mix-blend-mode:passthrough"><path d="M96.01057881591797,340.48955083984373C97.73038881591796,340.48955083984373,99.12456881591797,338.48723083984373,99.12456881591797,336.01722083984373C99.12456881591797,333.54722083984376,97.73038881591796,331.54486083984375,96.01057881591797,331.54486083984375C94.29077881591797,331.54486083984375,92.89659881591797,333.54722083984376,92.89659881591797,336.01722083984373C92.89659881591797,338.48723083984373,94.29077881591797,340.48955083984373,96.01057881591797,340.48955083984373C96.01057881591797,340.48955083984373,96.01057881591797,340.48955083984373,96.01057881591797,340.48955083984373Z" transform="matrix(0.1438499391078949,-0.9895994663238525,0.9895614385604858,0.14411170780658722,-248.55058070709424,375.69578934125)" fill="#FF6584" fill-opacity="1"/></g><g style="mix-blend-mode:passthrough"><path d="M88.42600331054688,326.8246813964844C89.98847331054688,326.8246813964844,91.25509331054687,325.94435139648436,91.25509331054687,324.8584313964844C91.25509331054687,323.7725093964844,89.98847331054688,322.8921813964844,88.42600331054688,322.8921813964844C86.86353331054687,322.8921813964844,85.59689331054688,323.7725093964844,85.59689331054688,324.8584313964844C85.59689331054688,325.94435139648436,86.86353331054687,326.8246813964844,88.42600331054688,326.8246813964844C88.42600331054688,326.8246813964844,88.42600331054688,326.8246813964844,88.42600331054688,326.8246813964844Z" transform="matrix(0.007554534822702408,-0.9999714493751526,0.999971330165863,0.007568601053208113,-237.9326755318824,406.04278875805215)" fill="#E6E6E6" fill-opacity="1"/></g><g style="mix-blend-mode:passthrough"><path d="M84.1377929321289,308.832840625C85.7002529321289,308.832840625,86.9668629321289,307.952550625,86.9668629321289,306.866630625C86.9668629321289,305.780716625,85.7002529321289,304.900390625,84.1377929321289,304.900390625C82.57532293212891,304.900390625,81.3086929321289,305.780716625,81.3086929321289,306.866630625C81.3086929321289,307.952550625,82.57532293212891,308.832840625,84.1377929321289,308.832840625C84.1377929321289,308.832840625,84.1377929321289,308.832840625,84.1377929321289,308.832840625Z" transform="matrix(0.007554534822702408,-0.9999714493751526,0.999971330165863,0.007568601053208113,-224.19720560138774,383.8990927255322)" fill="#3F3D56" fill-opacity="1"/></g><g style="mix-blend-mode:passthrough"><path d="M117.48448787841797,340.4969946777344C119.04694787841797,340.4969946777344,120.31355787841797,339.6167046777344,120.31355787841797,338.5307846777344C120.31355787841797,337.4448706777344,119.04694787841797,336.5645446777344,117.48448787841797,336.5645446777344C115.92201787841798,336.5645446777344,114.65538787841797,337.4448706777344,114.65538787841797,338.5307846777344C114.65538787841797,339.6167046777344,115.92201787841798,340.4969946777344,117.48448787841797,340.4969946777344C117.48448787841797,340.4969946777344,117.48448787841797,340.4969946777344,117.48448787841797,340.4969946777344Z" transform="matrix(0.007554534822702408,-0.9999714493751526,0.999971330165863,0.007568601053208113,-222.7656756699821,448.6693363058659)" fill="#E6E6E6" fill-opacity="1"/></g><g style="mix-blend-mode:passthrough"><path d="M103.42158063232422,347.5252434375C104.98405063232421,347.5252434375,106.25069063232422,346.6449134375,106.25069063232422,345.5589834375C106.25069063232422,344.4730664375,104.98405063232421,343.5927734375,103.42158063232422,343.5927734375C101.85910063232421,343.5927734375,100.59246063232422,344.4730664375,100.59246063232422,345.5589834375C100.59246063232422,346.6449134375,101.85910063232421,347.5252434375,103.42158063232422,347.5252434375C103.42158063232422,347.5252434375,103.42158063232422,347.5252434375,103.42158063232422,347.5252434375Z" transform="matrix(0.007554534822702408,-0.9999714493751526,0.999971330165863,0.007568601053208113,-243.7503913040989,441.58184546530447)" fill="#FF6584" fill-opacity="1"/></g><g style="mix-blend-mode:passthrough"><path d="M122.99767858398438,360.51450125C124.56016858398438,360.51450125,125.82680858398437,359.63420125,125.82680858398437,358.54828125C125.82680858398437,357.46236025,124.56016858398438,356.58203125,122.99767858398438,356.58203125C121.43519858398437,356.58203125,120.16854858398438,357.46236025,120.16854858398438,358.54828125C120.16854858398438,359.63420125,121.43519858398437,360.51450125,122.99767858398438,360.51450125C122.99767858398438,360.51450125,122.99767858398438,360.51450125,122.99767858398438,360.51450125Z" transform="matrix(0.007554415613412857,-0.9999714493751526,0.999971330165863,0.007568601053208113,-237.31106267798748,474.04832180956146)" fill="#3F3D56" fill-opacity="1"/></g><g style="mix-blend-mode:passthrough"><path d="M327.69067067382815,272.84459234375C329.41048067382815,272.84459234375,330.80466067382815,270.84227234375,330.80466067382815,268.37226234375C330.80466067382815,265.90226234375,329.41048067382815,263.89990234375,327.69067067382815,263.89990234375C325.97087067382813,263.89990234375,324.5766906738281,265.90226234375,324.5766906738281,268.37226234375C324.5766906738281,270.84227234375,325.97087067382813,272.84459234375,327.69067067382815,272.84459234375C327.69067067382815,272.84459234375,327.69067067382815,272.84459234375,327.69067067382815,272.84459234375Z" transform="matrix(0.14384852349758148,-0.9895997047424316,0.9895612597465515,0.14411300420761108,16.74169314839355,547.0694918639929)" fill="#E6E6E6" fill-opacity="1"/></g><g style="mix-blend-mode:passthrough"><path d="M356.7917859277344,270.00180890625C358.51158592773436,270.00180890625,359.90574592773436,267.99945890625,359.90574592773436,265.52944890625C359.90574592773436,263.05944890625,358.51158592773436,261.05712890625,356.7917859277344,261.05712890625C355.0719859277344,261.05712890625,353.6778259277344,263.05944890625,353.6778259277344,265.52944890625C353.6778259277344,267.99945890625,355.0719859277344,270.00180890625,356.7917859277344,270.00180890625C356.7917859277344,270.00180890625,356.7917859277344,270.00180890625,356.7917859277344,270.00180890625Z" transform="matrix(0.1438489854335785,-0.9895996451377869,0.9895612597465515,0.14411276578903198,44.469608151389366,573.4349150618164)" fill="#3F3D56" fill-opacity="1"/></g><g style="mix-blend-mode:passthrough"><path d="M319.721401875,249.26256109375C321.441211875,249.26256109375,322.835391875,247.26024109375,322.835391875,244.79023109375C322.835391875,242.32023109375,321.441211875,240.31787109375,319.721401875,240.31787109375C318.001601875,240.31787109375,316.607421875,242.32023109375,316.607421875,244.79023109375C316.607421875,247.26024109375,318.001601875,249.26256109375,319.721401875,249.26256109375C319.721401875,249.26256109375,319.721401875,249.26256109375,319.721401875,249.26256109375Z" transform="matrix(0.14384840428829193,-0.9895997643470764,0.9895614385604858,0.14411170780658722,33.25465122112655,518.9998823520218)" fill="#FF6584" fill-opacity="1"/></g><g style="mix-blend-mode:passthrough"><path d="M312.13740857421874,235.59796734375C313.69987857421876,235.59796734375,314.96651857421875,234.71764734375,314.96651857421875,233.63173734375C314.96651857421875,232.54582734375,313.69987857421876,231.66552734375,312.13740857421874,231.66552734375C310.57492857421875,231.66552734375,309.30828857421875,232.54582734375,309.30828857421875,233.63173734375C309.30828857421875,234.71764734375,310.57492857421875,235.59796734375,312.13740857421874,235.59796734375C312.13740857421874,235.59796734375,312.13740857421874,235.59796734375,312.13740857421874,235.59796734375Z" transform="matrix(0.007554415613412857,-0.9999714493751526,0.999971330165863,0.0075687202624976635,75.31275967814986,539.2115734021306)" fill="#E6E6E6" fill-opacity="1"/></g><g style="mix-blend-mode:passthrough"><path d="M307.8491700488281,217.60623657226563C309.41164004882813,217.60623657226563,310.6782800488281,216.72591657226562,310.6782800488281,215.63998657226563C310.6782800488281,214.5540545722656,309.41164004882813,213.67373657226562,307.8491700488281,213.67373657226562C306.2866900488281,213.67373657226562,305.0200500488281,214.5540545722656,305.0200500488281,215.63998657226563C305.0200500488281,216.72591657226562,306.2866900488281,217.60623657226563,307.8491700488281,217.60623657226563C307.8491700488281,217.60623657226563,307.8491700488281,217.60623657226563,307.8491700488281,217.60623657226563Z" transform="matrix(0.007554534822702408,-0.9999714493751526,0.999971330165863,0.007568601053208113,89.04815487743315,517.06786684041)" fill="#3F3D56" fill-opacity="1"/></g><g style="mix-blend-mode:passthrough"><path d="M341.19588025390624,249.270290625C342.75835025390626,249.270290625,344.02499025390625,248.390010625,344.02499025390625,247.304100625C344.02499025390625,246.218192625,342.75835025390626,245.337890625,341.19588025390624,245.337890625C339.63340025390625,245.337890625,338.36676025390625,246.218192625,338.36676025390625,247.304100625C338.36676025390625,248.390010625,339.63340025390625,249.270290625,341.19588025390624,249.270290625C341.19588025390624,249.270290625,341.19588025390624,249.270290625,341.19588025390624,249.270290625Z" transform="matrix(0.007554415613412857,-0.9999714493751526,0.999971330165863,0.0075687202624976635,90.47974028881595,581.8380964325415)" fill="#E6E6E6" fill-opacity="1"/></g><g style="mix-blend-mode:passthrough"><path d="M327.13290249023436,256.2981621386719C328.6953724902344,256.2981621386719,329.96197249023436,255.41783213867188,329.96197249023436,254.33190213867186C329.96197249023436,253.24598513867187,328.6953724902344,252.36569213867188,327.13290249023436,252.36569213867188C325.57044249023437,252.36569213867188,324.3038024902344,253.24598513867187,324.3038024902344,254.33190213867186C324.3038024902344,255.41783213867188,325.57044249023437,256.2981621386719,327.13290249023436,256.2981621386719C327.13290249023436,256.2981621386719,327.13290249023436,256.2981621386719,327.13290249023436,256.2981621386719Z" transform="matrix(0.007554534822702408,-0.9999714493751526,0.999971330165863,0.007568601053208113,69.4953812650507,574.7501803093904)" fill="#FF6584" fill-opacity="1"/></g><g style="mix-blend-mode:passthrough"><path d="M346.7090133300781,269.28793875C348.2714833300781,269.28793875,349.5380833300781,268.40763875,349.5380833300781,267.32171875C349.5380833300781,266.23579775,348.2714833300781,265.35546875,346.7090133300781,265.35546875C345.1465533300781,265.35546875,343.8799133300781,266.23579775,343.8799133300781,267.32171875C343.8799133300781,268.40763875,345.1465533300781,269.28793875,346.7090133300781,269.28793875C346.7090133300781,269.28793875,346.7090133300781,269.28793875,346.7090133300781,269.28793875Z" transform="matrix(0.007554534822702408,-0.9999714493751526,0.999971330165863,0.007568601053208113,75.93419949727456,607.2171944134243)" fill="#3F3D56" fill-opacity="1"/></g><g style="mix-blend-mode:passthrough"><path d="M219.38598317382812,104.01540685791015C221.10579317382812,104.01540685791015,222.49997317382812,102.01308685791015,222.49997317382812,99.54307685791015C222.49997317382812,97.07307685791015,221.10579317382812,95.07071685791016,219.38598317382812,95.07071685791016C217.66618317382813,95.07071685791016,216.27200317382812,97.07307685791015,216.27200317382812,99.54307685791015C216.27200317382812,102.01308685791015,217.66618317382813,104.01540685791015,219.38598317382812,104.01540685791015C219.38598317382812,104.01540685791015,219.38598317382812,104.01540685791015,219.38598317382812,104.01540685791015Z" transform="matrix(0.1438492238521576,-0.9895995855331421,0.9895613193511963,0.14411240816116333,91.083139370744,295.3925316091513)" fill="#FFFFFF" fill-opacity="1"/></g><g style="mix-blend-mode:passthrough"><path d="M248.48709842773437,101.17311170166016C250.2068984277344,101.17311170166016,251.6010584277344,99.17076170166015,251.6010584277344,96.70075170166015C251.6010584277344,94.23075170166015,250.2068984277344,92.22843170166016,248.48709842773437,92.22843170166016C246.76729842773437,92.22843170166016,245.37313842773438,94.23075170166015,245.37313842773438,96.70075170166015C245.37313842773438,99.17076170166015,246.76729842773437,101.17311170166016,248.48709842773437,101.17311170166016C248.48709842773437,101.17311170166016,248.48709842773437,101.17311170166016,248.48709842773437,101.17311170166016Z" transform="matrix(0.14384888112545013,-0.9895996451377869,0.9895612597465515,0.14411276578903198,118.81080394752098,321.75830803918006)" fill="#3F3D56" fill-opacity="1"/></g><g style="mix-blend-mode:passthrough"><path d="M211.41723317382812,80.4339478125C213.13704317382812,80.4339478125,214.53122317382812,78.4316278125,214.53122317382812,75.9616178125C214.53122317382812,73.4916178125,213.13704317382812,71.4892578125,211.41723317382812,71.4892578125C209.69743317382813,71.4892578125,208.30325317382812,73.4916178125,208.30325317382812,75.9616178125C208.30325317382812,78.4316278125,209.69743317382813,80.4339478125,211.41723317382812,80.4339478125C211.41723317382812,80.4339478125,211.41723317382812,80.4339478125,211.41723317382812,80.4339478125Z" transform="matrix(0.14384888112545013,-0.9895996451377869,0.9895612597465515,0.14411276578903198,107.59606325069808,267.32356856680235)" fill="#FF6584" fill-opacity="1"/></g><g style="mix-blend-mode:passthrough"><path d="M203.8326958154297,66.76887907836914C205.3951658154297,66.76887907836914,206.6618058154297,65.88856907836914,206.6618058154297,64.80263907836914C206.6618058154297,63.71671307836914,205.3951658154297,62.83639907836914,203.8326958154297,62.83639907836914C202.27022581542968,62.83639907836914,201.0035858154297,63.71671307836914,201.0035858154297,64.80263907836914C201.0035858154297,65.88856907836914,202.27022581542968,66.76887907836914,203.8326958154297,66.76887907836914C203.8326958154297,66.76887907836914,203.8326958154297,66.76887907836914,203.8326958154297,66.76887907836914Z" transform="matrix(0.007554534822702408,-0.9999714493751526,0.999971330165863,0.007568601053208113,136.65049965766917,263.3586624795829)" fill="#E6E6E6" fill-opacity="1"/></g><g style="mix-blend-mode:passthrough"><path d="M199.54444203125001,48.77728285644531C201.10691203125,48.77728285644531,202.37355203125,47.89697285644531,202.37355203125,46.81104285644531C202.37355203125,45.72511685644531,201.10691203125,44.84480285644531,199.54444203125001,44.84480285644531C197.98197203125,44.84480285644531,196.71533203125,45.72511685644531,196.71533203125,46.81104285644531C196.71533203125,47.89697285644531,197.98197203125,48.77728285644531,199.54444203125001,48.77728285644531C199.54444203125001,48.77728285644531,199.54444203125001,48.77728285644531,199.54444203125001,48.77728285644531Z" transform="matrix(0.007554534822702408,-0.9999714493751526,0.999971330165863,0.007568601053208113,150.38572204187494,241.21510611991854)" fill="#3F3D56" fill-opacity="1"/></g><g style="mix-blend-mode:passthrough"><path d="M232.8911674951172,80.4412361743164C234.4536374951172,80.4412361743164,235.7202774951172,79.5609161743164,235.7202774951172,78.4749961743164C235.7202774951172,77.3890751743164,234.4536374951172,76.5087661743164,232.8911674951172,76.5087661743164C231.32869749511718,76.5087661743164,230.0620574951172,77.3890751743164,230.0620574951172,78.4749961743164C230.0620574951172,79.5609161743164,231.32869749511718,80.4412361743164,232.8911674951172,80.4412361743164C232.8911674951172,80.4412361743164,232.8911674951172,80.4412361743164,232.8911674951172,80.4412361743164Z" transform="matrix(0.007554534822702408,-0.9999714493751526,0.999971330165863,0.007568601053208113,151.8174729897076,305.9851909256919)" fill="#E6E6E6" fill-opacity="1"/></g><g style="mix-blend-mode:passthrough"><path d="M218.8282249902344,87.46912109375C220.39070499023438,87.46912109375,221.65730499023437,86.58880109374999,221.65730499023437,85.50287109375C221.65730499023437,84.41693909375,220.39070499023438,83.53662109375,218.8282249902344,83.53662109375C217.26575499023437,83.53662109375,215.99911499023438,84.41693909375,215.99911499023438,85.50287109375C215.99911499023438,86.58880109374999,217.26575499023437,87.46912109375,218.8282249902344,87.46912109375C218.8282249902344,87.46912109375,218.8282249902344,87.46912109375,218.8282249902344,87.46912109375Z" transform="matrix(0.007554534822702408,-0.9999714493751526,0.999971330165863,0.007568601053208113,130.83311604168887,298.8973138158933)" fill="#FF6584" fill-opacity="1"/></g><g style="mix-blend-mode:passthrough"><path d="M238.40433583007814,100.45882481689453C239.96681583007813,100.45882481689453,241.23341583007812,99.57851481689453,241.23341583007812,98.49260481689453C241.23341583007812,97.40668281689453,239.96681583007813,96.52637481689453,238.40433583007814,96.52637481689453C236.84186583007812,96.52637481689453,235.57522583007812,97.40668281689453,235.57522583007812,98.49260481689453C235.57522583007812,99.57851481689453,236.84186583007812,100.45882481689453,238.40433583007814,100.45882481689453C238.40433583007814,100.45882481689453,238.40433583007814,100.45882481689453,238.40433583007814,100.45882481689453Z" transform="matrix(0.007554534822702408,-0.9999714493751526,0.999971330165863,0.007568601053208113,137.27195716144013,331.36430520497515)" fill="#3F3D56" fill-opacity="1"/></g></g></g></svg>