<svg xmlns="http://www.w3.org/2000/svg" xmlns:xlink="http://www.w3.org/1999/xlink" fill="none" version="1.1" width="25" height="25" viewBox="0 0 25 25"><g style="mix-blend-mode:passthrough"><g><g style="mix-blend-mode:passthrough"><path d="M23.0167,2.44657C21.7226,0.868907,19.9469,0,18.0162,0C16.5731,0,15.2515,0.512812,14.0881,1.52407C13.501,2.03452,12.969,2.65903,12.5,3.38794C12.0312,2.65925,11.499,2.03452,10.9118,1.52407C9.74846,0.512812,8.42686,0,6.98376,0C5.05314,0,3.27721,0.868907,1.98307,2.44657C0.704384,4.00581,0,6.13595,0,8.44489C0,10.8214,0.787926,12.9967,2.47955,15.2911C3.99284,17.3434,6.16779,19.4268,8.68645,21.8393C9.54647,22.6632,10.5213,23.5971,11.5335,24.5918C11.801,24.8551,12.1441,25,12.5,25C12.8557,25,13.199,24.8551,13.4661,24.5922C14.4783,23.5973,15.4537,22.663,16.3141,21.8387C18.8324,19.4266,21.0073,17.3434,22.5206,15.2909C24.2123,12.9967,25,10.8214,25,8.44467C25,6.13595,24.2956,4.00581,23.0167,2.44657Z" fill="#FF6B5C" fill-opacity="1"/></g></g></g></svg>