<svg xmlns="http://www.w3.org/2000/svg" xmlns:xlink="http://www.w3.org/1999/xlink" fill="none" version="1.1" width="32" height="32" viewBox="0 0 32 32"><clipPath id="master_svg0_58_1317"><rect x="0" y="0" width="32" height="32" rx="0"/></clipPath><g clip-path="url(#master_svg0_58_1317)" style="mix-blend-mode:passthrough"><g><g style="mix-blend-mode:passthrough"></g><g style="mix-blend-mode:passthrough"><g><g style="mix-blend-mode:passthrough"><path d="M38,10.025041430511475C38,10.025041430511475,39,10.025041430511475,39,10.025041430511475C39,10.025041430511475,39,10.024751430511476,39,10.024751430511476C39,10.024751430511476,38,10.025041430511475,38,10.025041430511475C38,10.025041430511475,38,10.025041430511475,38,10.025041430511475ZM35.8763,8.035811430511474C35.8763,8.035811430511474,36.066,9.017641430511475,36.066,9.017641430511475C36.0731,9.016271430511475,36.0802,9.014831430511475,36.087199999999996,9.013311430511475C36.087199999999996,9.013311430511475,35.8763,8.035811430511474,35.8763,8.035811430511474C35.8763,8.035811430511474,35.8763,8.035811430511474,35.8763,8.035811430511474ZM26.45399,9.856911430511474C26.45399,9.856911430511474,26.26422,8.875071430511476,26.26422,8.875071430511476C26.25715,8.876441430511475,26.25009,8.877891430511475,26.24304,8.879411430511475C26.24304,8.879411430511475,26.45399,9.856911430511474,26.45399,9.856911430511474C26.45399,9.856911430511474,26.45399,9.856911430511474,26.45399,9.856911430511474ZM25,11.848161430511475C25,11.848161430511475,26,11.848161430511475,26,11.848161430511475C26,11.848161430511475,26,11.847561430511474,26,11.847561430511474C26,11.847561430511474,25,11.848161430511475,25,11.848161430511475C25,11.848161430511475,25,11.848161430511475,25,11.848161430511475ZM39,12.166671430511474C39,12.166671430511474,39,10.025041430511475,39,10.025041430511475C39,10.025041430511475,37,10.025041430511475,37,10.025041430511475C37,10.025041430511475,37,12.166671430511474,37,12.166671430511474C37,12.166671430511474,39,12.166671430511474,39,12.166671430511474C39,12.166671430511474,39,12.166671430511474,39,12.166671430511474ZM39,10.024751430511476C38.9999,9.597761430511476,38.9167,9.172761430511475,38.753,8.778931430511474C38.753,8.778931430511474,36.9062,9.546741430511474,36.9062,9.546741430511474C36.9668,9.692321430511475,37,9.856111430511476,37,10.025321430511475C37,10.025321430511475,39,10.024751430511476,39,10.024751430511476C39,10.024751430511476,39,10.024751430511476,39,10.024751430511476ZM38.753,8.778931430511474C38.5892,8.385021430511475,38.3466,8.026851430511474,38.0349,7.734939430511474C38.0349,7.734939430511474,36.667699999999996,9.194621430511475,36.667699999999996,9.194621430511475C36.7617,9.282701430511475,36.8457,9.401241430511474,36.9062,9.546741430511474C36.9062,9.546741430511474,38.753,8.778931430511474,38.753,8.778931430511474C38.753,8.778931430511474,38.753,8.778931430511474,38.753,8.778931430511474ZM38.0349,7.734939430511474C37.7228,7.442589430511474,37.3485,7.223590430511474,36.9354,7.103451430511474C36.9354,7.103451430511474,36.3769,9.023891430511474,36.3769,9.023891430511474C36.4737,9.052051430511474,36.5741,9.106971430511475,36.667699999999996,9.194621430511475C36.667699999999996,9.194621430511475,38.0349,7.734939430511474,38.0349,7.734939430511474C38.0349,7.734939430511474,38.0349,7.734939430511474,38.0349,7.734939430511474ZM36.9354,7.103451430511474C36.5216,6.983120030511475,36.0868,6.967350030511475,35.6653,7.058312030511475C35.6653,7.058312030511475,36.087199999999996,9.013311430511475,36.087199999999996,9.013311430511475C36.182900000000004,8.992661430511475,36.280699999999996,8.995921430511475,36.3769,9.023891430511474C36.3769,9.023891430511474,36.9354,7.103451430511474,36.9354,7.103451430511474C36.9354,7.103451430511474,36.9354,7.103451430511474,36.9354,7.103451430511474ZM35.6865,7.0539810305114745C35.6865,7.0539810305114745,26.26422,8.875071430511476,26.26422,8.875071430511476C26.26422,8.875071430511476,26.64375,10.838741430511474,26.64375,10.838741430511474C26.64375,10.838741430511474,36.066,9.017641430511475,36.066,9.017641430511475C36.066,9.017641430511475,35.6865,7.0539810305114745,35.6865,7.0539810305114745C35.6865,7.0539810305114745,35.6865,7.0539810305114745,35.6865,7.0539810305114745ZM26.24304,8.879411430511475C25.57525,9.023521430511474,25.00084,9.420871430511475,24.602623,9.966241430511474C24.602623,9.966241430511474,26.21785,11.145661430511474,26.21785,11.145661430511474C26.3505,10.963991430511474,26.51437,10.866891430511474,26.66493,10.834401430511475C26.66493,10.834401430511475,26.24304,8.879411430511475,26.24304,8.879411430511475C26.24304,8.879411430511475,26.24304,8.879411430511475,26.24304,8.879411430511475ZM24.602623,9.966241430511474C24.205806,10.509681430511474,23.9996,11.175721430511475,24.000001,11.848761430511475C24.000001,11.848761430511475,26,11.847561430511474,26,11.847561430511474C25.99984,11.577221430511475,26.0838,11.329241430511475,26.21785,11.145661430511474C26.21785,11.145661430511474,24.602623,9.966241430511474,24.602623,9.966241430511474C24.602623,9.966241430511474,24.602623,9.966241430511474,24.602623,9.966241430511474ZM24,11.848161430511475C24,11.848161430511475,24,13.000001430511475,24,13.000001430511475C24,13.000001430511475,26,13.000001430511475,26,13.000001430511475C26,13.000001430511475,26,11.848161430511475,26,11.848161430511475C26,11.848161430511475,24,11.848161430511475,24,11.848161430511475C24,11.848161430511475,24,11.848161430511475,24,11.848161430511475Z" transform="matrix(-1,0,0,1,48,0)" fill="#E94B64" fill-opacity="1"/></g><g style="mix-blend-mode:passthrough"><path d="M27.07692,12L40.9231,12C42.0701,12,43,12.97005,43,14.16667L43,22.8333C43,24.03,42.0701,25,40.9231,25L27.07692,25C25.92987,25,25,24.03,25,22.8333L25,14.16667C25,12.97005,25.92987,12,27.07692,12ZM40.9231,14L27.07692,14Q27,14,27,14.16667L27,22.8333Q27,23,27.07692,23L40.9231,23Q40.930099999999996,23,40.947900000000004,22.9814Q41,22.927,41,22.8333L41,14.16667Q41,14,40.9231,14Z" fill-rule="evenodd" transform="matrix(-1,0,0,1,50,0)" fill="#E94B64" fill-opacity="1"/></g><g style="mix-blend-mode:passthrough"><path d="M14.5,18C14.20333,18,13.913319,17.91203,13.666645,17.74721C13.419971,17.58238,13.227713,17.34812,13.114181,17.07403C13.000649933,16.79994,12.9709449,16.49834,13.0288228,16.20737C13.0867006,15.916394,13.229562,15.64912,13.439341,15.439341C13.64912,15.229562,13.916394,15.0867006,14.207370000000001,15.0288228C14.49834,14.9709449,14.79994,15.000649933,15.07403,15.114181C15.34812,15.227713,15.58238,15.419971,15.747209999999999,15.666645C15.91203,15.913319,16,16.20333,16,16.5C16,16.89783,15.84197,17.27936,15.56066,17.56066C15.27936,17.84197,14.897829999999999,18,14.5,18C14.5,18,14.5,18,14.5,18Z" transform="matrix(-1,0,0,1,26,0)" fill="#E94B64" fill-opacity="1"/></g></g></g></g></g></svg>