<svg xmlns="http://www.w3.org/2000/svg" xmlns:xlink="http://www.w3.org/1999/xlink" fill="none" version="1.1" width="22" height="22" viewBox="0 0 22 22"><defs><linearGradient x1="0.5" y1="0" x2="0.5" y2="1" id="master_svg0__0256"><stop offset="0%" stop-color="#C862FF" stop-opacity="1"/><stop offset="100%" stop-color="#FF6A6A" stop-opacity="1"/></linearGradient><linearGradient x1="0.5" y1="0" x2="0.5" y2="1" id="master_svg1__0256"><stop offset="0%" stop-color="#C862FF" stop-opacity="1"/><stop offset="100%" stop-color="#FF6A6A" stop-opacity="1"/></linearGradient><linearGradient x1="0.5" y1="0" x2="0.5" y2="1" id="master_svg2__0256"><stop offset="0%" stop-color="#C862FF" stop-opacity="1"/><stop offset="100%" stop-color="#FF6A6A" stop-opacity="1"/></linearGradient><linearGradient x1="0.5" y1="0" x2="0.5" y2="1" id="master_svg3__0256"><stop offset="0%" stop-color="#C862FF" stop-opacity="1"/><stop offset="100%" stop-color="#FF6A6A" stop-opacity="1"/></linearGradient></defs><g style="mix-blend-mode:passthrough"><g transform="matrix(-1,0,0,1,44,0)"><g style="mix-blend-mode:passthrough"><path d="M35.42,5.83C38.94,5.17,42.129999999999995,6.82,43.34,10.01C41.91,9.46,40.260000000000005,9.35,38.61,9.79C38.94,10.23,39.269999999999996,10.78,39.489999999999995,11.33C39.6,11.55,39.6,11.77,39.489999999999995,11.88L33.99,17.38C33.769999999999996,17.6,33.55,17.6,33.33,17.49C32.78,17.27,32.230000000000004,16.94,31.68,16.61C31.240000000000002,18.26,31.35,19.91,31.9,21.34C28.71,20.13,27.17,16.83,27.72,13.42C24.42,10.01,22.11,5.28,22,0.55C22,0.22,22.22,0,22.55,0C27.28,0.11,32.01,2.42,35.42,5.83ZM28.16,9.24C29.04,10.12,30.36,10.12,31.240000000000002,9.24C32.12,8.36,32.12,7.04,31.240000000000002,6.16C30.36,5.28,29.04,5.28,28.16,6.16C27.28,7.04,27.28,8.36,28.16,9.24Z" fill-rule="evenodd" fill="url(#master_svg0__0256)" fill-opacity="1"/></g><g style="mix-blend-mode:passthrough"><path d="M43.669999771118164,15.839999809265137L41.35999977111816,13.529999809265137C40.919999771118164,13.089999809265137,40.25999977111817,13.089999809265137,39.81999977111816,13.529999809265137C39.379999771118165,13.969999809265136,39.379999771118165,14.629999809265136,39.81999977111816,15.069999809265138L42.129999771118165,17.379999809265136C42.56999977111816,17.819999809265138,43.229999771118166,17.819999809265138,43.669999771118164,17.379999809265136C44.10999977111816,16.93999980926514,44.10999977111816,16.279999809265135,43.669999771118164,15.839999809265137Z" fill="url(#master_svg1__0256)" fill-opacity="1"/></g><g style="mix-blend-mode:passthrough"><path d="M39.379999809265136,20.129999771118165L37.069999809265134,17.819999771118162C36.629999809265136,17.379999771118165,35.96999980926514,17.379999771118165,35.529999809265135,17.819999771118162C35.08999980926514,18.259999771118164,35.08999980926514,18.919999771118164,35.529999809265135,19.359999771118165L37.83999980926514,21.669999771118164C38.279999809265135,22.109999771118165,38.93999980926514,22.109999771118165,39.379999809265136,21.669999771118164C39.819999809265134,21.229999771118166,39.819999809265134,20.569999771118162,39.379999809265136,20.129999771118165Z" fill="url(#master_svg2__0256)" fill-opacity="1"/></g><g style="mix-blend-mode:passthrough"><path d="M42.34999996185303,18.919999618530273L39.159999961853025,15.729999618530274C38.71999996185303,15.289999618530274,38.05999996185303,15.289999618530274,37.619999961853026,15.729999618530274C37.17999996185303,16.169999618530273,37.17999996185303,16.829999618530273,37.619999961853026,17.269999618530274L40.80999996185303,20.459999618530272C41.24999996185303,20.899999618530273,41.909999961853025,20.899999618530273,42.34999996185303,20.459999618530272C42.78999996185303,20.019999618530274,42.78999996185303,19.359999618530274,42.34999996185303,18.919999618530273Z" fill="url(#master_svg3__0256)" fill-opacity="1"/></g></g></g></svg>