<svg xmlns="http://www.w3.org/2000/svg" xmlns:xlink="http://www.w3.org/1999/xlink" fill="none" version="1.1" width="44" height="49" viewBox="0 0 44 49"><defs><mask id="master_svg0_38_0696"><g style="mix-blend-mode:passthrough"><path d="M17.5,20C19.22391,20.000000000000004,20.877209999999998,20.684819,22.0962,21.90381C23.3152,23.122790000000002,24,24.77609,24,26.5C24,28.11,23.41,29.59,22.439999999999998,30.73C22.439999999999998,30.73,22.71,31,22.71,31C22.71,31,23.5,31,23.5,31C23.5,31,28.5,36,28.5,36C28.5,36,27,37.5,27,37.5C27,37.5,22,32.5,22,32.5C22,32.5,22,31.71,22,31.71C22,31.71,21.73,31.439999999999998,21.73,31.439999999999998C20.59,32.41,19.11,33,17.5,33C15.77609,33,14.12279,32.315200000000004,12.90381,31.0962C11.684819,29.877209999999998,11.000000000000002,28.22391,11,26.5C11,24.77609,11.684819,23.122790000000002,12.90381,21.90381C14.12279,20.684819,15.77609,20.000000000000004,17.5,20C17.5,20,17.5,20,17.5,20C17.5,20,17.5,20,17.5,20ZM17.5,22C15,22,13,24,13,26.5C13,29,15,31,17.5,31C20,31,22,29,22,26.5C22,24,20,22,17.5,22C17.5,22,17.5,22,17.5,22Z" fill="#FFFFFF" fill-opacity="1"/></g></mask></defs><g style="mix-blend-mode:passthrough"><g><g style="mix-blend-mode:passthrough"><g></g></g></g><g mask="url(#master_svg0_38_0696)"><g style="mix-blend-mode:passthrough"><g><g style="mix-blend-mode:passthrough"><rect x="4" y="0" width="40" height="40" rx="0" fill="#5E5E5E" fill-opacity="1"/></g></g></g></g></g></svg>