<svg xmlns="http://www.w3.org/2000/svg" xmlns:xlink="http://www.w3.org/1999/xlink" fill="none" version="1.1" width="24" height="24" viewBox="0 0 24 24"><defs><mask id="master_svg0_38_1280"><g style="mix-blend-mode:passthrough"><path d="M12,13C10.673919999999999,13,9.402149999999999,12.4732,8.46447,11.5355C7.52678,10.59785,7,9.32608,7,8C7,8,9,8,9,8C9,8.79565,9.31607,9.55871,9.87868,10.12132C10.44129,10.68393,11.20435,11,12,11C12.79565,11,13.5587,10.68393,14.1213,10.12132C14.6839,9.55871,15,8.79565,15,8C15,8,17,8,17,8C17,9.32608,16.4732,10.59785,15.5355,11.5355C14.5979,12.4732,13.3261,13,12,13C12,13,12,13,12,13C12,13,12,13,12,13ZM12,3C12.79565,3,13.5587,3.31607,14.1213,3.87868C14.6839,4.44129,15,5.20435,15,6C15,6,9,6,9,6C9,5.20435,9.31607,4.44129,9.87868,3.87868C10.44129,3.31607,11.20435,3,12,3C12,3,12,3,12,3C12,3,12,3,12,3ZM19,6C19,6,17,6,17,6C17,5.34339,16.8707,4.6932100000000005,16.6194,4.08658C16.3681,3.47995,15.9998,2.92876,15.5355,2.46447C15.0712,2.00017,14.52,1.631876,13.9134,1.380602C13.3068,1.129329,12.65661,1.0000000000000007,12,1C10.673919999999999,1.0000000000000007,9.402149999999999,1.5267840000000001,8.46447,2.46447C7.52678,3.40215,7,4.67392,7,6C7,6,5,6,5,6C3.89,6,3,6.89,3,8C3,8,3,20,3,20C3.0000000000000004,20.5304,3.210714,21.0391,3.585786,21.4142C3.960859,21.7893,4.46957,22,5,22C5,22,19,22,19,22C19.5304,22,20.0391,21.7893,20.4142,21.4142C20.7893,21.0391,21,20.5304,21,20C21,20,21,8,21,8C21,6.89,20.1,6,19,6C19,6,19,6,19,6Z" fill="#FFFFFF" fill-opacity="1"/></g></mask></defs><g style="mix-blend-mode:passthrough"><g><g style="mix-blend-mode:passthrough"><g></g></g></g><g mask="url(#master_svg0_38_1280)"><g style="mix-blend-mode:passthrough"><g><g style="mix-blend-mode:passthrough"><rect x="0" y="0" width="24" height="24" rx="0" fill="#5E5E5E" fill-opacity="1"/></g></g></g></g></g></svg>