<svg xmlns="http://www.w3.org/2000/svg" xmlns:xlink="http://www.w3.org/1999/xlink" fill="none" version="1.1" width="32" height="32" viewBox="0 0 32 32"><g style="mix-blend-mode:passthrough"><g><g style="mix-blend-mode:passthrough"><g><g style="mix-blend-mode:passthrough"></g><g style="mix-blend-mode:passthrough"><g><g style="mix-blend-mode:passthrough"><path d="M28.215,15.322661528930665Q28.215,17.268301528930664,27.4311,19.036901528930663Q26.6315,20.841001528930665,25.1284,22.201901528930666Q21.8175,25.199601528930664,16.3709,25.199601528930664Q14.33321,25.199601528930664,12.42117,24.696901528930663L12.56102,24.165001528930663L12.954830000000001,24.548901528930664Q11.02339,26.530001528930665,8.29996,26.530001528930665L5.366196,26.530001528930665L7.44067,24.455501528930665Q8.24466,23.651501528930662,8.38086,22.506901528930666L8.92701,22.571801528930663L8.62525,23.031701528930665Q6.58395,21.692101528930664,5.500646,19.762401528930663Q4.45,17.890901528930662,4.45,15.745061528930664Q4.45,13.810231528930665,5.30125,11.962131528930664Q6.15285,10.113261528930664,7.7095400000000005,8.673001528930664Q9.32978,7.173931528930664,11.46921,6.351784528930664Q13.75265,5.474301528930664,16.3709,5.474301528930664Q21.8387,5.474301528930664,25.1442,8.469711528930663Q26.6418,9.826751528930664,27.4372,11.626741528930664Q28.215,13.386721528930664,28.215,15.322661528930665ZM27.115,15.322661528930665Q27.115,13.618951528930664,26.4311,12.071371528930664Q25.7301,10.485031528930664,24.4056,9.284831528930663Q21.4144,6.574301528930664,16.3709,6.574301528930664Q11.59761,6.574300528930664,8.45657,9.480421528930664Q7.0604499999999994,10.772131528930665,6.3003599999999995,12.422321528930663Q5.55,14.051391528930663,5.55,15.745061528930664Q5.55,17.603301528930665,6.45983,19.223901528930664Q7.41179,20.919601528930663,9.22877,22.112001528930666L9.51338,22.298801528930664L9.47315,22.636801528930665Q9.29193,24.159901528930664,8.21849,25.233301528930664L7.08292,26.368901528930664L6.6940100000000005,25.980001528930664L6.6940100000000005,25.430001528930664L8.29996,25.430001528930664Q10.559560000000001,25.430001528930664,12.16721,23.781001528930663L12.39093,23.551601528930664L12.70087,23.633001528930663Q14.47539,24.099601528930663,16.3709,24.099601528930663Q21.3935,24.099601528930663,24.3902,21.386401528930662Q25.7204,20.182101528930666,26.4255,18.591201528930664Q27.115,17.035401528930663,27.115,15.322661528930665Z" fill="#A8A8A8" fill-opacity="1"/></g></g></g></g></g><g style="mix-blend-mode:passthrough"><ellipse cx="23" cy="8" rx="5" ry="5" fill="#A8A8A8" fill-opacity="1"/><ellipse cx="23" cy="8" rx="5" ry="5" fill-opacity="0" stroke-opacity="1" stroke="#A8A8A8" stroke-width="1" fill="none" stroke-dasharray=""/></g></g></g></svg>