<svg xmlns="http://www.w3.org/2000/svg" xmlns:xlink="http://www.w3.org/1999/xlink" fill="none" version="1.1" width="341" height="225" viewBox="0 0 341 225"><clipPath id="master_svg0_72_0940"><rect x="0" y="0" width="341" height="225" rx="0"/></clipPath><g clip-path="url(#master_svg0_72_0940)" style="mix-blend-mode:passthrough"><g><g style="mix-blend-mode:passthrough"><path d="M261.077613671875,222.4557578125C256.711893671875,218.3844578125,254.060096671875,211.95295781250002,254.755533671875,205.6918578125C255.450969671875,199.4307578125,259.758273671875,193.6748578125,265.345463671875,192.3452578125C270.932663671875,191.0156578125,277.301663671875,194.6961578125,278.998763671875,200.7196578125C279.932663671875,189.1065578125,281.008863671875,177.00685781250002,286.603363671875,167.1171578125C291.668963671875,158.1623578125,300.442763671875,151.7548178125,309.951563671875,150.6085178125C319.46036367187503,149.4622188125,329.471963671875,153.7916778125,335.402163671875,162.0747578125C341.332463671875,170.3577578125,342.784563671875,182.3995578125,338.631063671875,191.90915781249998C335.571363671875,198.9145578125,329.934463671875,204.1280578125,324.028263671875,208.3695578125C304.943163671875,221.95965781249998,282.053263671875,227.4862578125,259.569893671875,223.93235781250002C259.569893671875,223.93235781250002,261.077613671875,222.4557578125,261.077613671875,222.4557578125C261.077613671875,222.4557578125,261.077613671875,222.4557578125,261.077613671875,222.4557578125Z" fill="#F2F2F2" fill-opacity="1"/></g><g style="mix-blend-mode:passthrough"><path d="M325.9991450195312,154.03151645605467C318.15324501953125,161.0844724560547,310.95534501953125,168.9726924560547,304.50974501953124,177.58199245605468C294.42244501953127,191.0094924560547,286.25966501953127,206.06409245605468,280.3058236195312,222.22139245605467C279.86997101953125,223.4000924560547,281.60425501953125,223.91319245605467,282.03524501953126,222.7475924560547C291.77674501953123,196.48859245605468,307.32824501953127,173.34419245605469,327.26734501953126,155.43113245605468C328.16274501953126,154.6264764560547,326.88714501953126,153.23349345605467,325.9991450195312,154.03151645605467C325.9991450195312,154.03151645605467,325.9991450195312,154.03151645605467,325.9991450195312,154.03151645605467Z" fill="#FFFFFF" fill-opacity="1"/></g><g style="mix-blend-mode:passthrough"><path d="M109.773,221.34944913330077C115.77,215.75744913330078,119.412,206.9237491333008,118.457,198.32414913330078C117.502,189.72444913330077,111.586,181.8187491333008,103.912,179.99264913330077C96.2375,178.16644913330077,87.4896,183.22154913330078,85.1588,191.49484913330076C83.876,175.54424913330078,82.3978,158.92534913330078,74.7139,145.34184913330077C67.7562,133.04244913330078,55.7054,124.24163913330078,42.6451,122.66719613330078C29.5847,121.09275913330079,15.8339,127.03924913330079,7.6886,138.4160491333008C-0.456662,149.7927491333008,-2.451,166.3321491333008,3.25373,179.39364913330078C7.4562,189.0155491333008,15.1986,196.1762491333008,23.3108,202.0019491333008C49.1913,220.58774913330078,81.2961,228.33954913330078,111.844,223.37754913330076" fill="#F2F2F2" fill-opacity="1"/></g><g style="mix-blend-mode:passthrough"><path d="M20.60374332702637,127.368758625C31.380113327026365,137.056015625,41.26631332702637,147.890415625,50.119413327026365,159.71531562500002C58.97381332702637,171.528115625,66.76911332702636,184.260915625,73.39601332702637,197.734815625C77.10001332702637,205.29311562499998,80.42751332702636,213.068915625,83.36351332702637,221.027515625C83.96211332702637,222.646515625,81.58011332702637,223.351215625,80.98811332702637,221.75031562499998C75.78781332702637,207.71931562499998,69.35391332702636,194.28451562499998,61.778913327026366,181.638715625C54.24061332702637,169.038715625,45.61271332702637,157.275415625,36.016213327026364,146.514115625C30.58851332702637,140.430515625,24.86170332702637,134.680805625,18.86188932702637,129.291145625C17.632098327026366,128.185945625,19.384097327026367,126.272672625,20.60373332702637,127.368771625C20.60373332702637,127.368771625,20.60374332702637,127.368758625,20.60374332702637,127.368758625C20.60374332702637,127.368758625,20.60374332702637,127.368758625,20.60374332702637,127.368758625Z" fill="#FFFFFF" fill-opacity="1"/></g><g style="mix-blend-mode:passthrough"><path d="M244.7750666503906,224.507C244.7750666503906,224.507,101.71206665039062,224.507,101.71206665039062,224.507C101.71206665039062,224.507,101.71206665039062,62.5074,101.71206665039062,62.5074C101.71206665039062,28.0406,127.11946665039062,0,158.34936665039064,0C158.34936665039064,0,188.1380666503906,0,188.1380666503906,0C219.36806665039063,0,244.7750666503906,28.0406,244.7750666503906,62.5074C244.7750666503906,62.5074,244.7750666503906,224.507,244.7750666503906,224.507C244.7750666503906,224.507,244.7750666503906,224.507,244.7750666503906,224.507Z" fill="#F2F2F2" fill-opacity="1"/></g><g style="mix-blend-mode:passthrough"><path d="M214.98687591552735,224.50746484375C214.98687591552735,224.50746484375,101.71206787452735,224.50746484375,101.71206787452735,224.50746484375C101.71206787452735,224.50746484375,101.71206787452735,62.50716484375,101.71206787452735,62.50716484375C101.68080011552735,49.30026484375,105.47012591552735,36.42716484375,112.52827591552735,25.76216484375C112.78847591552734,25.37076484375,113.04797591552735,24.98446484375,113.31567591552735,24.60236484375C116.72967591552734,19.66066484375,120.79247591552735,15.30856484375,125.36987591552735,11.68966484375C125.62847591552735,11.48206484375,125.88807591552734,11.27806484375,126.15147591552734,11.07396484375C129.98177591552735,8.14866484375,134.12507591552736,5.75726484375,138.48717591552736,3.95422484375C138.74617591552735,3.84586484375,139.00987591552735,3.73729484375,139.27367591552735,3.63316484375C143.21877591552735,2.07937484375,147.30827591552736,1.01504484375,151.46667591552733,0.45981084375C151.72447591552734,0.42094384375,151.98917591552734,0.39052984375,152.25387591552735,0.36011584375C156.30627591552735,-0.11808515625,160.39337591552734,-0.11808515625,164.44577591552735,0.36011584375C164.70967591552733,0.39052984375,164.97437591552733,0.42093984375,165.23527591552735,0.46022684375C169.39257591552735,1.01549484375,173.48107591552736,2.07970484375,177.42517591552735,3.63318484375C177.68897591552735,3.73731484375,177.95277591552735,3.84587484375,178.21247591552736,3.95444484375C182.52077591552734,5.73474484375,186.61537591552735,8.09046484375,190.40477591552735,10.96906484375C190.66807591552734,11.16866484375,190.93157591552733,11.37266484375,191.19117591552734,11.57676484375C193.75697591552733,13.59806484375,196.16697591552736,15.84986484375,198.39667591552734,18.30936484375C200.18477591552733,20.28206484375,201.85087591552735,22.38486484375,203.38387591552734,24.60366484375C203.65087591552734,24.98446484375,203.91087591552736,25.37086484375,204.16987591552734,25.76156484375C211.22887591552734,36.42666484375,215.01787591552733,49.30006484375,214.98687591552735,62.50716484375C214.98687591552735,62.50716484375,214.98687591552735,224.50746484375,214.98687591552735,224.50746484375C214.98687591552735,224.50746484375,214.98687591552735,224.50746484375,214.98687591552735,224.50746484375Z" fill="#CCCCCC" fill-opacity="1"/></g><g style="mix-blend-mode:passthrough"><path d="M205.77585289550782,152.05099609375C209.23938289550782,152.05099609375,212.0470928955078,148.95219609375,212.0470928955078,145.12972609375C212.0470928955078,141.30723609375,209.23938289550782,138.20849609375,205.77585289550782,138.20849609375C202.3123328955078,138.20849609375,199.5045928955078,141.30723609375,199.5045928955078,145.12972609375C199.5045928955078,148.95219609375,202.3123328955078,152.05099609375,205.77585289550782,152.05099609375C205.77585289550782,152.05099609375,205.77585289550782,152.05099609375,205.77585289550782,152.05099609375Z" fill="#700BEF" fill-opacity="1"/></g><g style="mix-blend-mode:passthrough"><path d="M233.05548666992186,219.65540703125C233.05548666992186,219.65540703125,228.25011666992188,219.65540703125,228.25011666992188,219.65540703125C228.25011666992188,219.65540703125,225.96383666992188,199.19970703125,225.96383666992188,199.19970703125C225.96383666992188,199.19970703125,233.05627666992189,199.20014267125,233.05627666992189,199.20014267125C233.05627666992189,199.20014267125,233.05548666992186,219.65540703125,233.05548666992186,219.65540703125C233.05548666992186,219.65540703125,233.05548666992186,219.65540703125,233.05548666992186,219.65540703125Z" fill="#FFB8B8" fill-opacity="1"/></g><g style="mix-blend-mode:passthrough"><path d="M224.81766127441406,218.1396484375C224.81766127441406,218.1396484375,234.08498127441408,218.1396484375,234.08498127441408,218.1396484375C234.08498127441408,218.1396484375,234.08498127441408,224.5793784375,234.08498127441408,224.5793784375C234.08498127441408,224.5793784375,218.98268127441406,224.5793784375,218.98268127441406,224.5793784375C218.98268127441406,223.7336984375,219.13362427441407,222.8962984375,219.42685927441406,222.1149984375C219.72009427441407,221.3336984375,220.14989127441407,220.6237884375,220.69171127441408,220.0257984375C221.23354127441405,219.4278184375,221.87678127441407,218.9534634375,222.58471127441408,218.6298364375C223.29265127441406,218.3062094375,224.05140127441408,218.13964843749997,224.81766127441406,218.1396484375C224.81766127441406,218.1396484375,224.81766127441406,218.1396484375,224.81766127441406,218.1396484375C224.81766127441406,218.1396484375,224.81766127441406,218.1396484375,224.81766127441406,218.1396484375Z" fill="#2F2E41" fill-opacity="1"/></g><g style="mix-blend-mode:passthrough"><path d="M256.9646673925781,219.65540703125C256.9646673925781,219.65540703125,252.15933739257812,219.65540703125,252.15933739257812,219.65540703125C252.15933739257812,219.65540703125,249.87307739257812,199.19970703125,249.87307739257812,199.19970703125C249.87307739257812,199.19970703125,256.9654573925781,199.20014267125,256.9654573925781,199.20014267125C256.9654573925781,199.20014267125,256.9646673925781,219.65540703125,256.9646673925781,219.65540703125C256.9646673925781,219.65540703125,256.9646673925781,219.65540703125,256.9646673925781,219.65540703125Z" fill="#FFB8B8" fill-opacity="1"/></g><g style="mix-blend-mode:passthrough"><path d="M248.72686096191407,218.1396484375C248.72686096191407,218.1396484375,257.9941609619141,218.1396484375,257.9941609619141,218.1396484375C257.9941609619141,218.1396484375,257.9941609619141,224.5793784375,257.9941609619141,224.5793784375C257.9941609619141,224.5793784375,242.89186096191406,224.5793784375,242.89186096191406,224.5793784375C242.89186096191406,223.7336984375,243.04280496191407,222.8962984375,243.33603996191405,222.1149984375C243.62927596191406,221.3336984375,244.05907096191407,220.6237884375,244.60090096191405,220.0257984375C245.14273096191405,219.4278184375,245.78597096191407,218.9534634375,246.49391096191405,218.6298364375C247.20184096191406,218.3062094375,247.96060096191405,218.13964843749997,248.72686096191407,218.1396484375C248.72686096191407,218.1396484375,248.72686096191407,218.1396484375,248.72686096191407,218.1396484375C248.72686096191407,218.1396484375,248.72686096191407,218.1396484375,248.72686096191407,218.1396484375Z" fill="#2F2E41" fill-opacity="1"/></g><g style="mix-blend-mode:passthrough"><path d="M208.9497652373047,146.50049609375C208.60406923730469,145.93839609375,208.3742502373047,145.29949609375,208.2764999373047,144.62869609375C208.17874983730468,143.95799609375,208.2154318673047,143.27169609375,208.3839862373047,142.61829609375C208.5525402373047,141.96489609374999,208.8488532373047,141.36029609375,209.25205823730468,140.84689609375C209.65525823730468,140.33359609375,210.15554823730469,139.92399609375,210.71767823730468,139.64719609374998C210.71767823730468,139.64719609374998,227.0526682373047,89.95849609375,227.0526682373047,89.95849609375C227.0526682373047,89.95849609375,235.0905682373047,94.79962609374999,235.0905682373047,94.79962609374999C235.0905682373047,94.79962609374999,216.43947823730468,142.28389609375,216.43947823730468,142.28389609375C216.79833823730468,143.35699609375,216.7880882373047,144.53799609375,216.4106582373047,145.60329609375C216.03321823730468,146.66849609375,215.31482823730468,147.54389609375,214.3916282373047,148.06369609375C213.4684182373047,148.58339609375,212.40452823730467,148.71139609375,211.4015582373047,148.42329609375C210.3985882373047,148.13519609374998,209.52622823730468,147.45099609375,208.9497652373047,146.50049609375C208.9497652373047,146.50049609375,208.9497652373047,146.50049609375,208.9497652373047,146.50049609375C208.9497652373047,146.50049609375,208.9497652373047,146.50049609375,208.9497652373047,146.50049609375Z" fill="#FFB8B8" fill-opacity="1"/></g><g style="mix-blend-mode:passthrough"><path d="M254.51004434570314,155.83743782958985C253.97602434570314,155.49953782958983,253.51563434570312,155.03653782958986,253.1612943457031,154.48093782958983C252.80695434570313,153.92543782958984,252.56729434570312,153.29093782958984,252.45918434570314,152.62213782958986C252.35107434570313,151.95333782958983,252.37714434570313,151.26643782958985,252.53556434570314,150.61003782958983C252.69399434570312,149.95353782958983,252.98092434570313,149.34333782958984,253.37612434570312,148.82253782958983C253.37612434570312,148.82253782958983,248.31570434570312,96.26033782958984,248.31570434570312,96.26033782958984C248.31570434570312,96.26033782958984,257.4629943457031,96.72154782958984,257.4629943457031,96.72154782958984C257.4629943457031,96.72154782958984,259.56610434570314,148.42333782958985,259.56610434570314,148.42333782958985C260.3149043457031,149.21413782958984,260.77490434570313,150.28053782958983,260.8590043457031,151.42053782958985C260.9430043457031,152.56063782958984,260.64510434570315,153.69503782958984,260.02190434570315,154.60893782958985C259.39870434570315,155.52283782958983,258.49340434570314,156.15263782958985,257.4774943457031,156.37903782958983C256.4616243457031,156.60543782958985,255.40578434570313,156.41273782958984,254.51004434570314,155.83743782958985C254.51004434570314,155.83743782958985,254.51004434570314,155.83743782958985,254.51004434570314,155.83743782958985C254.51004434570314,155.83743782958985,254.51004434570314,155.83743782958985,254.51004434570314,155.83743782958985Z" fill="#FFB8B8" fill-opacity="1"/></g><g style="mix-blend-mode:passthrough"><path d="M239.91732312011717,80.7550585571289C245.2340731201172,80.7550585571289,249.5440731201172,75.9982585571289,249.5440731201172,70.1304585571289C249.5440731201172,64.26272855712891,245.2340731201172,59.505958557128906,239.91732312011717,59.505958557128906C234.6006031201172,59.505958557128906,230.2905731201172,64.26272855712891,230.2905731201172,70.1304585571289C230.2905731201172,75.9982585571289,234.6006031201172,80.7550585571289,239.91732312011717,80.7550585571289C239.91732312011717,80.7550585571289,239.91732312011717,80.7550585571289,239.91732312011717,80.7550585571289Z" fill="#FFB8B8" fill-opacity="1"/></g><g style="mix-blend-mode:passthrough"><path d="M254.44858288574218,143.88301640625C254.44858288574218,143.88301640625,225.4255828857422,143.88301640625,225.4255828857422,143.88301640625C225.4255828857422,143.88301640625,225.4605104857422,143.63381640625,225.4605104857422,143.63381640625C225.5126639857422,143.26121640625,230.6330528857422,106.24221640625001,226.8565628857422,94.13137640625C226.4776028857422,92.94122640625,226.5109328857422,91.63843640625,226.9501228857422,90.47377640625C227.38931288574219,89.30910640625,228.20331288574218,88.36490640625,229.23546288574218,87.82288640625C229.23546288574218,87.82288640625,229.23556288574218,87.82288640625,229.23556288574218,87.82288640625C234.63346288574218,85.01747540625,244.9950828857422,81.56298640625,253.74058288574219,89.94648640625C255.0274828857422,91.20045640625,256.0324828857422,92.76765640625,256.6759828857422,94.52416640625C257.31948288574216,96.28071640625001,257.5838828857422,98.17831640625,257.4482828857422,100.06701640625C257.4482828857422,100.06701640625,254.44858288574218,143.88301640625,254.44858288574218,143.88301640625C254.44858288574218,143.88301640625,254.44858288574218,143.88301640625,254.44858288574218,143.88301640625Z" fill="#700BEF" fill-opacity="1"/></g><g style="mix-blend-mode:passthrough"><path d="M230.99979538574217,111.71324172363282C230.99979538574217,111.71324172363282,217.9333953857422,108.78764172363282,217.9333953857422,108.78764172363282C217.9333953857422,108.78764172363282,224.0581553857422,92.76939172363281,224.0581553857422,92.76939172363281C224.42468538574218,91.21794172363282,225.33381538574218,89.89027172363281,226.58611538574218,89.07759572363281C227.8384253857422,88.26492152363281,229.3316953857422,88.03359672363281,230.7382953857422,88.4343667236328C232.1448953857422,88.83513772363281,233.35009538574218,89.83528172363282,234.0894953857422,91.21541172363281C234.8288953857422,92.5955417236328,235.0420953857422,94.24299172363281,234.68229538574218,95.7963817236328C234.68229538574218,95.7963817236328,230.99979538574217,111.71324172363282,230.99979538574217,111.71324172363282C230.99979538574217,111.71324172363282,230.99979538574217,111.71324172363282,230.99979538574217,111.71324172363282Z" fill="#700BEF" fill-opacity="1"/></g><g style="mix-blend-mode:passthrough"><path d="M247.73468247558594,117.14537232666015C247.73468247558594,117.14537232666015,246.94914147558595,97.27217232666015,246.94914147558595,97.27217232666015C246.35345647558594,93.53634232666016,248.29122747558594,90.00475432666016,251.27138747558593,89.42749322666016C254.25240747558593,88.85234332666016,257.1631374755859,91.44337232666015,257.76153747558595,95.20666232666015C257.76153747558595,95.20666232666015,260.7141374755859,113.77617232666016,260.7141374755859,113.77617232666016C260.7141374755859,113.77617232666016,247.73468247558594,117.14537232666015,247.73468247558594,117.14537232666015C247.73468247558594,117.14537232666015,247.73468247558594,117.14537232666015,247.73468247558594,117.14537232666015Z" fill="#700BEF" fill-opacity="1"/></g><g style="mix-blend-mode:passthrough"><path d="M253.48302158203126,141.50399780273438C258.15292158203124,161.13289780273436,258.66242158203124,186.08949780273437,257.4025215820312,213.31179780273436C257.4025215820312,213.31179780273436,251.13122158203126,212.44659780273437,251.13122158203126,212.44659780273437C251.13122158203126,212.44659780273437,239.76462158203125,160.53739780273438,239.76462158203125,160.53739780273438C239.76462158203125,160.53739780273438,233.49332158203126,213.31179780273436,233.49332158203126,213.31179780273436C233.49332158203126,213.31179780273436,226.43814158203125,212.87919780273438,226.43814158203125,212.87919780273438C224.33043558203124,184.31629780273437,222.27822158203125,159.79539780273439,225.65423158203126,143.66688780273438C225.65423158203126,143.66688780273438,253.48302158203126,141.50399780273438,253.48302158203126,141.50399780273438C253.48302158203126,141.50399780273438,253.48302158203126,141.50399780273438,253.48302158203126,141.50399780273438Z" fill="#2F2E41" fill-opacity="1"/></g><g style="mix-blend-mode:passthrough"><path d="M246.26049025878905,78.341275C244.46459025878906,80.452675,241.12929025878907,79.319275,240.89529025878906,76.434875C240.87689025878908,76.210975,240.87829025878906,75.985575,240.89929025878905,75.761875C241.02009025878905,74.484275,241.68889025878906,73.324375,241.52869025878906,71.975275C241.49239025878907,71.63957500000001,241.37909025878906,71.319575,241.19939025878907,71.04577499999999C239.76829025878905,68.930775,236.40880025878906,71.991775,235.05815025878906,70.07707500000001C234.22995025878907,68.903075,235.20351025878907,67.054575,234.56797025878907,65.742475C233.72916025878905,64.010585,231.24464025878908,64.864875,229.68659025878907,63.916465C227.95307625878905,62.861195,228.05677325878906,59.925845,229.19789525878906,58.140405C230.58954025878907,55.962995,233.02953025878907,54.801119,235.43913025878905,54.6336689C237.84873025878906,54.466218,240.24169025878905,55.185094,242.49129025878906,56.152635000000004C245.04729025878908,57.251965,247.58189025878906,58.771245,249.15479025878906,61.251655C251.06759025878907,64.268085,251.25169025878907,68.323375,250.29509025878906,71.85057499999999C249.71309025878907,73.996175,247.72709025878908,76.617175,246.26049025878905,78.341275C246.26049025878905,78.341275,246.26049025878905,78.341275,246.26049025878905,78.341275Z" fill="#2F2E41" fill-opacity="1"/></g><g style="mix-blend-mode:passthrough"><path d="M329.2345252685547,224.785979375C329.2345252685547,224.785979375,39.85686326855469,224.785979375,39.85686326855469,224.785979375C39.73332226855469,224.785589375,39.614973268554685,224.731138375,39.52774226855469,224.634588375C39.44051266855469,224.538037375,39.39152526855469,224.407265375,39.39152526855469,224.270919375C39.39152526855469,224.134574375,39.44051266855469,224.003802375,39.52774226855469,223.907251375C39.614973268554685,223.810700875,39.73332226855469,223.756254507,39.85686326855469,223.755859375C39.85686326855469,223.755859375,329.2345252685547,223.755859375,329.2345252685547,223.755859375C329.3575252685547,223.756254507,329.47652526855467,223.810700875,329.5635252685547,223.907251375C329.6505252685547,224.003802375,329.6995252685547,224.134574375,329.6995252685547,224.270919375C329.6995252685547,224.407265375,329.6505252685547,224.538037375,329.5635252685547,224.634588375C329.47652526855467,224.731138375,329.3575252685547,224.785589375,329.2345252685547,224.785979375C329.2345252685547,224.785979375,329.2345252685547,224.785979375,329.2345252685547,224.785979375C329.2345252685547,224.785979375,329.2345252685547,224.785979375,329.2345252685547,224.785979375Z" fill="#3F3D56" fill-opacity="1"/></g><g style="mix-blend-mode:passthrough"><path d="M183.82640703125,177.57297982788086C183.82640703125,177.57297982788086,132.87240703125,177.57297982788086,132.87240703125,177.57297982788086C132.20135703125,177.57697982788085,131.55626703125,177.28697982788086,131.07865203125,176.76697982788085C130.60103703125,176.24597982788086,130.32989527125,175.53797982788086,130.32470703125,174.79797982788085C130.32470703125,174.79797982788085,130.32470703125,49.27713982788086,130.32470703125,49.27713982788086C130.32989527125,48.53654982788086,130.60103703125,47.82844982788086,131.07865203125,47.30820482788086C131.55626703125,46.78795682788086,132.20135703125,46.49803367788086,132.87240703125,46.50202040608086C132.87240703125,46.50202040608086,183.82640703125,46.50202040608086,183.82640703125,46.50202040608086C184.49750703125,46.49803367788086,185.14260703125,46.78795682788086,185.62020703125,47.30820482788086C186.09780703125,47.82844982788086,186.36900703125,48.53654982788086,186.37410703125,49.27713982788086C186.37410703125,49.27713982788086,186.37410703125,174.79797982788085,186.37410703125,174.79797982788085C186.36900703125,175.53797982788086,186.09780703125,176.24597982788086,185.62020703125,176.76697982788085C185.14260703125,177.28697982788086,184.49750703125,177.57697982788085,183.82640703125,177.57297982788086C183.82640703125,177.57297982788086,183.82640703125,177.57297982788086,183.82640703125,177.57297982788086C183.82640703125,177.57297982788086,183.82640703125,177.57297982788086,183.82640703125,177.57297982788086Z" fill="#FFFFFF" fill-opacity="1"/></g><g style="mix-blend-mode:passthrough"><path d="M186.37417651367187,87.11669921875C186.37417651367187,87.11669921875,130.32467651367188,87.11669921875,130.32467651367188,87.11669921875C130.32467651367188,87.11669921875,130.32467651367188,87.98185721875,130.32467651367188,87.98185721875C130.32467651367188,87.98185721875,186.37417651367187,87.98185721875,186.37417651367187,87.98185721875C186.37417651367187,87.98185721875,186.37417651367187,87.11669921875,186.37417651367187,87.11669921875C186.37417651367187,87.11669921875,186.37417651367187,87.11669921875,186.37417651367187,87.11669921875Z" fill="#CCCCCC" fill-opacity="1"/></g><g style="mix-blend-mode:passthrough"><path d="M186.57017565917968,136.47804260253906C186.57017565917968,136.47804260253906,130.5206756591797,136.47804260253906,130.5206756591797,136.47804260253906C130.5206756591797,136.47804260253906,130.5206756591797,137.34320060253907,130.5206756591797,137.34320060253907C130.5206756591797,137.34320060253907,186.57017565917968,137.34320060253907,186.57017565917968,137.34320060253907C186.57017565917968,137.34320060253907,186.57017565917968,136.47804260253906,186.57017565917968,136.47804260253906C186.57017565917968,136.47804260253906,186.57017565917968,136.47804260253906,186.57017565917968,136.47804260253906Z" fill="#CCCCCC" fill-opacity="1"/></g><g style="mix-blend-mode:passthrough"><path d="M148.74653622558594,46.502037048339844C148.74653622558594,46.502037048339844,147.96263122558594,46.502037048339844,147.96263122558594,46.502037048339844C147.96263122558594,46.502037048339844,147.96263122558594,178.00503704833983,147.96263122558594,178.00503704833983C147.96263122558594,178.00503704833983,148.74653622558594,178.00503704833983,148.74653622558594,178.00503704833983C148.74653622558594,178.00503704833983,148.74653622558594,46.502037048339844,148.74653622558594,46.502037048339844C148.74653622558594,46.502037048339844,148.74653622558594,46.502037048339844,148.74653622558594,46.502037048339844Z" fill="#CCCCCC" fill-opacity="1"/></g><g style="mix-blend-mode:passthrough"><path d="M168.34422325195314,46.502037048339844C168.34422325195314,46.502037048339844,167.56033325195312,46.502037048339844,167.56033325195312,46.502037048339844C167.56033325195312,46.502037048339844,167.56033325195312,178.00503704833983,167.56033325195312,178.00503704833983C167.56033325195312,178.00503704833983,168.34422325195314,178.00503704833983,168.34422325195314,178.00503704833983C168.34422325195314,178.00503704833983,168.34422325195314,46.502037048339844,168.34422325195314,46.502037048339844C168.34422325195314,46.502037048339844,168.34422325195314,46.502037048339844,168.34422325195314,46.502037048339844Z" fill="#CCCCCC" fill-opacity="1"/></g></g></g></svg>